/* XPM */
static char *result[] = {
/* columns rows colors chars-per-pixel */
"64 64 219 2 ",
"   c #000000",
".  c #070809",
"X  c #030C0B",
"o  c #140102",
"O  c #1B020D",
"+  c #041306",
"@  c #0A0815",
"#  c #1F0215",
"$  c #130817",
"%  c #1C021B",
"&  c #1B171C",
"*  c #2B0306",
"=  c #22020D",
"-  c #2A030C",
";  c #210314",
":  c #290314",
">  c #210319",
",  c #28031D",
"<  c #3D0B14",
"1  c #07211D",
"2  c #0B0225",
"3  c #190424",
"4  c #0D1C28",
"5  c #080E3E",
"6  c #170A39",
"7  c #091738",
"8  c #0D133C",
"9  c #19133C",
"0  c #28102C",
"q  c #290D33",
"w  c #23123E",
"e  c #0B2728",
"r  c #16242B",
"t  c #0C382A",
"y  c #162C32",
"u  c #193537",
"i  c #312A32",
"p  c #322A39",
"a  c #263B3D",
"s  c #430404",
"d  c #5B0608",
"f  c #490511",
"g  c #5A151B",
"h  c #7D0F12",
"j  c #772414",
"k  c #5C0F24",
"l  c #5E0F2A",
"z  c #4F1927",
"x  c #5D1126",
"c  c #501732",
"v  c #6D0836",
"b  c #72093D",
"n  c #57253E",
"m  c #733921",
"M  c #732833",
"N  c #772D30",
"B  c #0F4837",
"V  c #27443F",
"C  c #78453E",
"Z  c #160D40",
"A  c #180D47",
"S  c #061546",
"D  c #0D1544",
"F  c #0E1947",
"G  c #0C1649",
"H  c #0E1A4A",
"J  c #121545",
"K  c #191444",
"L  c #121946",
"P  c #12164B",
"I  c #1B174B",
"U  c #111A4A",
"Y  c #0D1C52",
"T  c #0A264A",
"R  c #0C3846",
"E  c #1A3155",
"W  c #382643",
"Q  c #263A48",
"!  c #47094E",
"~  c #6E0942",
"^  c #4B2E45",
"/  c #453C4A",
"(  c #175D49",
")  c #1D4B5C",
"_  c #1C555E",
"`  c #25594B",
"'  c #274555",
"]  c #354C55",
"[  c #27545A",
"{  c #345D55",
"}  c #15634D",
"|  c #1A6B55",
" . c #1B765B",
".. c #246B57",
"X. c #237B5F",
"o. c #1F4E63",
"O. c #2A4C65",
"+. c #255465",
"@. c #2C5264",
"#. c #285767",
"$. c #315567",
"%. c #325B6C",
"&. c #1E6764",
"*. c #1A7A60",
"=. c #1C7D6A",
"-. c #256B68",
";. c #277B66",
":. c #337C67",
">. c #404041",
",. c #444049",
"<. c #4A4651",
"1. c #525159",
"2. c #694F51",
"3. c #625C67",
"4. c #5A6364",
"5. c #6F6C6A",
"6. c #891611",
"7. c #BF1F10",
"8. c #BB2C16",
"9. c #B3321B",
"0. c #910B36",
"q. c #A81626",
"w. c #BB1F27",
"e. c #A91834",
"r. c #90222B",
"t. c #973329",
"y. c #983534",
"u. c #A92928",
"i. c #B62826",
"p. c #BD2C23",
"a. c #BB2C29",
"s. c #A43928",
"d. c #BC3625",
"f. c #A7233C",
"g. c #C51E11",
"h. c #C52513",
"j. c #C92515",
"k. c #C52915",
"l. c #C92917",
"z. c #C52619",
"x. c #C92519",
"c. c #C6291A",
"v. c #CA291A",
"b. c #CA3419",
"n. c #D3361F",
"m. c #CF2E2A",
"M. c #914830",
"N. c #A0462B",
"B. c #A9452D",
"V. c #B44422",
"C. c #B2552F",
"Z. c #AA4731",
"A. c #A95A37",
"S. c #B05730",
"D. c #D2431D",
"F. c #D64325",
"G. c #D74928",
"H. c #DC5A2D",
"J. c #C8573B",
"K. c #DB5533",
"L. c #DA5835",
"P. c #D86439",
"I. c #DE643A",
"U. c #8B5641",
"Y. c #985B57",
"T. c #A1474A",
"R. c #BF614E",
"E. c #A76253",
"W. c #BA6956",
"Q. c #A7736F",
"!. c #BD7567",
"~. c #B3716C",
"^. c #C55C49",
"/. c #CA6A43",
"(. c #DF6640",
"). c #DC6A45",
"_. c #D76E4B",
"`. c #C76F57",
"'. c #E06F48",
"]. c #E17243",
"[. c #E37C4B",
"{. c #E37B52",
"}. c #CB7E67",
"|. c #D67160",
" X c #1B865F",
".X c #1B8665",
"XX c #1C8965",
"oX c #1B866A",
"OX c #1C8A69",
"+X c #1D916C",
"@X c #278267",
"#X c #24896C",
"$X c #38846F",
"%X c #208370",
"&X c #258B73",
"*X c #D88424",
"=X c #B1887E",
"-X c #CB805F",
";X c #E58645",
":X c #E58A46",
">X c #E4854C",
",X c #E68C4D",
"<X c #E79547",
"1X c #E6904E",
"2X c #E58553",
"3X c #E68C52",
"4X c #E5865D",
"5X c #E68B5C",
"6X c #E79152",
"7X c #E89455",
"8X c #E79158",
"9X c #E9995C",
"0X c #EAA05E",
"qX c #E68B63",
"wX c #E78B68",
"eX c #E89669",
"rX c #EA9E7E",
"tX c #623194",
"yX c #9CA1AE",
/* pixels */
"tXtXtXtXtXtXtXtXtXtXtXtXtXtXtXtXtXtXtXtXtXtXtXtXtXtXtXtXtXtX` tXtXtXtXtXtXtXtXtXtXtXtXtXtXtXtXtXtXtXtXtXtXtXtXtXtXtXtXtXtXtXtXtX",
"tXtXtXtXtXtXtXtXtXtXtXtXtXtXtXtXtXtXtXtXtXtXtXtXtXtXtXtXtX  .X| ,./ tXtXtXtXtXtXtX$     p tXtXtXtXtXtXtXtXtXtXtXtXtXtXtXtXtXtXtX",
"tXtXtXtXtXtXtXtXtXtXtXtXtXtXtXtXtXtXtXtXtXtXtXtXtXtXtXtXtX  .X| ,.,.tXtXtXtXtXtXtX@     p tXtXtXtXtXtXtXtXtXtXtXtXtXtXtXtXtXtXtX",
"tXtXtXtXtXtXtXtXtXtXtXtXtXtXtXtXtXtXtXtXtXtXtXtXtXtXtXtXtX+ .X.X} ( tXtXtXtXtX    ` oX.X| tXtXtXtXtXtXtXtXtXtXtXtXtXtXtXtXtXtXtX",
"tXtXtXtXtXtXtXtXtXtXtXtXtXtXtXtXtXtXtXtXtXtXtXtXtXtXtXtXtX@XoX.XOXOX( 3.tX4.| OXOXOXOXXX.XV tXtXtXtXtXtXtXtXtXtXtXtXtXtXtXtXtXtX",
"tXtXtXtXtXtXtXtXtXtXtXtXtXtXtXtXtXtXtXtXtXtXtXtXtXtXtXtXtX;..X*.OXXX X:.tX+XOXOXOXOXOXoXOXB tXtXtXtXtXtXtXtXtXtXtXtXtXtXtXtXtXtX",
"tXtXtXtXtXtXtXtXtXtXtXtXtXtXtXtXtXtXtXtXtXtXtXtXtXtXtXtXtX| XX@XOXOXOX:.-.OXOXOXXXOX=.=.+.e tXtXtXtXtXtXtXtXtXtXtXtXtXtXtXtXtXtX",
"tXtXtXtXtXtXtXtXtXtXtXtXtXtXtXtXtXtXtXtXtXtXtXtXtXtXtXtXtX  #XR -.-.&X  %XOXOX%X%X_ $.$.  ,.tXtXtXtXtXtXtXtXtXtXtXtXtXtXtXtXtXtX",
"tXtXtXtXtXtXtXtXtXtXtXtXtXtXtXtXtXtXtXtXtXtXtXtXtXtXtXtXtX  #Xu -.&.&XX oXoXoX%X%X+.$.$.  / tXtXtXtXtXtXtXtXtXtXtXtXtXtXtXtXtXtX",
"tXtXtXtXtXtXtXtXtXtXtXtXtXtXtXtXtXtXtXtXtXtXtXtXtXtXtXtXtX    ] i.9.9.d.9.9.] ] ]           tXtXtXtXtXtXtXtXtXtXtXtXtXtXtXtXtXtX",
"tXtXtXtXtXtXtXtXtXtXtXtXtXtXtXtXtXtXtXtXtXtXtXtX*X*X*Xt.t.{.2X8.>X>X,X:X:X>Xh.t.t.y.y.2.$.[ Q ' '     tXtXtXtXtXtXtXtXtXtXtXtXtX",
"tXtXtXtXtXtXtXtXtXtXtXtXtXtXtXtXtXtXtXtXtX0X0X*X*X*XH.;X,XI.H.1X,X,X1X6X1X1Xj.K.K.>X,XP.k.2.5.+.+.#.@.4 1.tXtXtXtXtXtXtXtXtXtXtX",
"tXtXtXtXtXtXtXtXtXtXtXtXtXtXtXtXtXtXtXtX0X0X0X2X>X>X6X;Xc.8X1X1X1X1X1X1X1X6Xh.1X,X3X1X1XL.v.c.P.P.=X+.*.XXr tXtXtXtXtXtXtXtXtXtX",
"tXtXtXtXtXtXtXtXtXtXtXtXtXtXtXtXtXtXtXtX*X2 % }.6X3X{.n.2X3X1X1X6X1X1X1X1X>Xk.,X,X,X1X1X'.2 2 g.g.{.o   ...X<.tXtXtXtXtXtXtXtXtX",
"tXtXtXtXtXtXtXtXtXtXtXtXtXtXtXtXtXtXtXtX*X2 % }.6X6X[.D.2X3X1X6X,X1X1X1X1X3Xh.,X,X1X1X1X{.2 2 g.h.{.o    . X<.tXtXtXtXtXtXtXtXtX",
"tXtXtXtXtXtXtXtXtXtXtXtXtXtXtXtXtXtXtX*X|.% D W.k.k.G.3X6X!.,X8X1X1X1X1X1X3Xh.3X3X1X1X1X_.2 2 c.v.z.l.8XyX{ 1.tXtXtXtXtXtXtXtXtX",
"tXtXtXtXtXtXtXtXtXtXtXtXtXtXtXtXtXtX*X5X, P U n.6X3X6X,XqXF -X3X1X1X1X6X6XwXu.,X,X1X1X1X; O # f f j.k.h.4XtXtXtXtXtXtXtXtXtXtXtX",
"tXtXtXtXtXtXtXtXtXtXtXtXtXtXtXtXtXtX3Xo H F w ].,X,X:X6Xp 8 W.3X1X6X:X9XU H ; 3X3X1X1X1X% O # # # u.j.l.8.>X2.tXtXtXtXtXtXtXtXtX",
"tXtXtXtXtXtXtXtXtXtXtXtXtXtXtXtXu.u.<X8 F A (.,X3X1X7X5XY I , 3X1X1X2XI L K # :X,X1X1X1X/.# # # # : c.c.x.qXM.tXtXtXtXtXtXtXtXtX",
"tXtXtXtXtXtXtXtXtXtXtXtXtXtXtX^.5X4X, rXeXi.,X3X6X,X;XJ J % 6 3X3X3XC U U L O 1X,X1X1X1X/.# > ; ; # s h.z.h.:XtXtXtXtXtXtXtXtXtX",
"tXtXtXtXtXtXtXtXtXtXtXtXtXtXtXJ.4X5X> rXeXp.,X,X6X1X;XJ U % 6 ,X,X3XC D U L O 1X1X1X1X1X/.# % # ; O s h.z.h.3XtXtXtXtXtXtXtXtXtX",
"tXtXtXtXtXtXtXtXtXtXtXtXtXtX9X,X1X1X3X6X8.D Y.3X1X1X8XL J > L 3XE.E.H U U % # 1X1X1X1X1X>XA.; # # # = ; x.h.H.3X*XtXtXtXtXtXtXtX",
"tXtXtXtXtXtXtXtXtXtXtXtXtXtX9X1X,X,X,X,Xq P W 3X:X:X9 F L # F L Y Y U U H ; # 1X<X1X1X1X1X3X2X^.^.# # > d g.x.*X3XU.tXtXtXtXtXtX",
"tXtXtXtXtXtXtXtXtXtXtXtXtXtX9X,X1X,X1Xm.P U H ,X-X-XF U L % L U U U U U L ; # 1X:X1X1X1X1X1X1X3X3Xh.k.z.u.j.l.I.*X2X*XtXtXtXtXtX",
"tXtXtXtXtXtXtXtXtXtXtXtXtX9X3X,X3X,X3X5 P L U S L L U D % 6 G U U U U U L > # O O :X1X1X6X,X6X2X2Xk.l.l.l.l.l.l.v.:X*XtXtXtXtXtX",
"tXtXtXtXtXtXtXtXtXtXtXtXtX9X3X,X1X,X3XU F U U H U U H D 3 Z D H U U U U F > = ; ; 1X6X1Xj B.7X:X,Xh.l.l.l.l.l.v.l.I.A.tXtXtXtXtX",
"tXtXtXtXtXtXtXtXtXtXtXtXtX9X,X1X1X1X2XH F U U U U U U D % 9 H U U U U U F ; # ; # 1X1X1Xj V.1X:X,Xh.l.l.l.v.l.v.v.I.A.tXtXtXtXtX",
"tXtXtXtXtXtXtXtXtXtXtXtXtXK.:X1X1X,X2XH J U U U U U U D % K U U U U U U I ; # ; : ,X3Xg ; M ,X3X,Xh.l.l.l.l.l.l.l.D.S.tXtXtXtXtX",
"tXtXtXtXtXtXtXtXtXtXtXtXtXK.[.J.:X1XH L U U U U U U U P 3 K H U U U U U L ; # > % T.: ; # N 3X3X3X6.j.x.l.l.k.l.b.n.J.tXtXtXtXtX",
"tXtXtXtXtXtXtXtXtXtXtXtXtXH.* ^ ,X,XP H L U U U U U H D # 6 H U U U U U J # # # # # > > # 6X3X* * - l.x.l.l.v.l.k.k.1X*XtXtXtXtX",
"tXtXtXtXtXtXtXtXtXtXtXtXtX>X* 5 L L H U L U U U U U H D % P U U U U U U J # # # ; # # # # :X5X# # * l.l.l.l.l.l.l.k.*X*XtXtXtXtX",
"tXtXtXtXtXtXtXtXtXtXtXtXtXN.; J L J J L U U U U U U H J % H L H U U U U K # # # # # # # % 6XwX> ; * v.l.l.l.l.l.l.v.*X*XtXtXtXtX",
"tXtXtXtXtXtXtXtXtXtXtXtXtXt.% J P D K L U U U U U U H Z % H U U U U U U K # # # ; # # # > 3XwX> > * c.l.v.l.l.l.l.c.*X*XtXtXtXtX",
"tXtXtXtXtXtXtXtXtXtXtXtXtXs.; J J L J U U U U U U H H D % U U U U U U U K # > # ; % # # > ,XwX> > * l.l.l.l.l.l.l.z.*X*XtXtXtXtX",
"tXtXtXtXtXtXtXtXtXtXtXtXtXN.% F U U U U U U U U U U U Z % U U L U U U U # # # # # # # ; # ,X- ; > * v.l.l.l.l.l.l.c.*X*XtXtXtXtX",
"tXtXtXtXtXtXtXtXtXtXtXtXtXN.% H U U U U U U U U U U U 3 # D U U U U U U % # # # # # # # l :X= ; % - j.l.l.k.l.l.l.v.*X2XtXtXtXtX",
"tXtXtXtXtXtXtXtXtXtXtXtXtXN.% H U U U U U U U U U U H % A U U U U U U U # # # # ; # # # x S.O # # v.z.l.l.l.v.l.v.v.n.3XtXtXtXtX",
"tXtXtXtXtXtXtXtXtXtXtXtXtXN.% H U U U U U U U U U U D > Z U L U U U U U # ; # # # # # # x B.; # ; v.j.j.l.l.l.l.v.v.G.3XtXtXtXtX",
"tXtXtXtXtXtXtXtXtXtXtXtXtXN.% P U U U U U U U U U U F > Z U U U U U U U # # # ; # # # # x Z.# ; > v.j.v.l.l.l.l.v.v.F.3XtXtXtXtX",
"tXtXtXtXtXtXtXtXtXtXtXtXtXN.% F U U U U U U U U U U D > Z U U U U U U U % ; % # # # ; # x Z.# ; ; k.c.h z.l.l.l.l.v.F.3XtXtXtXtX",
"tXtXtXtXtXtXtXtXtXtXtXtXtXN.% H U U U U U U U U U U D > Z U U U U U U U ; # # # # # # # k B.# ; ; j.a.; c.j.l.l.l.l.G.3XtXtXtXtX",
"tXtX& ` } } $ $ tXtXtXtXtXN.% U U U U U U U U U U U F > Z U U U U U U U # # # # ; # # # k B.# ; ; k.a.O b.c.l.l.l.l.F.2XtXtXtXtX",
"tX.  XXX+XOX+XOX` tXtXtXtXN.% H U U U U U U U U U U D > Z U U U U U U U ; # # # # ; # ; k B.; ; ; k.a.= p.l.l.l.l.l.F.3XtXtXtXtX",
"tXB t  XXX .oXOX+Xe tXtXtXN.$ U U U U U U U U U U U H > Z U U U U U U L % # ; # ; % # # k B.# ; ; h.a.= ; j.l.l.l.l.G.3XtXtXtXtX",
"tXtXtXX .XOXOX#.OXoXtXtXtXN.% U U U U U U U U U U U H > Z U U U U U U F ; # # # # # ; # k Z.# ; ; h.a.= ; j.l.l.l.v.G.3XtXtXtXtX",
"tXtXtXtX( .XXX%X=.OX  tXtXN.3 H U U U U U U U U U U D > Z U U U U U U U # # # ; # # # # k Z.# ; ; k.a.= : j.l.l.l.v.F.3XtXtXtXtX",
"tXtXtXtX( XXXX&XR XX  tXtXN.: G U U U U U U U U U U F > Z U U U U U U U % # # # # ; # # k B.; ; ; c.i.% : j.l.l.l.x.G.2XtXtXtXtX",
"tXtXtXtX` OXoXoXS $XtXtXtXN.> T U U U U U U U U U U D > Z U U U U U U H > ; # # # # # # k ).: # > c.c.: - x.l.l.l.x.I.2XtX  Q tX",
"tXtXtXtXe @XXXXXS   tXtXtXN.> F U U U U U U U U U U F > Z F H U U U U H % # # # # # # ; ; ,X- > > c.c.6.- l.l.l.l.j.,X< tXQ Q tX",
"tXtXtXtXtXtX    -.@X;.;.. V.; F U U U U U U U U U U H > Z F P U U U U U P # # # # ; % # ; :X= ; ; * b.k.d j.l.l.l.j.,X  i $.#.p ",
"tXtXtXtXtXa } .X XOXXXOXoXV.= F U U U U U U U U U U F > Z F U U U U U U K # # ; ; # # # ; ;X= ; # * 8.k.d l.l.l.l.j.,X  ' ) +.>.",
"tXtXtXtXB &XOXOX.X.XOXXX.X>X* J U U U U U U U U U U F > > D U U U U U U J # # # # # # # ; :XeX> % * z.k.c.j.l.v.l.h.>X  #.E [ 1 ",
"tXtXtX+ OXOXXXXXOXXXXX.X.XK.: 3 U U U U U U U U U U J 6 % G U U U U U U P ; # # # ; # # % 4X{.> > * c.l.l.l.l.l.c.D.2Xo #.O.+.4 ",
"tXtX  OXOXOXXX X@XX.[ +.+.n qX2 U P U F U U U U U U F 5 % D F U U U U U D # # # # # # # ; N l.: : * l.l.l.l.l.j.h.D.A.  T O.[ <.",
"tXtXX OXOXOXXX..tXtXtX  y n ;X: 0 0 8.6 H U U U U U H D > F U U U U U U J ; # # # ; ; # ; M x.7.g.~ x.c.l.l.j.j.z.,X~.+.E   tXtX",
"tXtX| OXOXOXB tXtXtXtXtXtXH d.`.q 0 k.p.P U U U U U H D % L U U U U U U H > > # # # > , > % a.x.z.~ c.v.l.l.l.v.v.,XP O.o.) Q tX",
"tXtX;.OXOXOXt tXtXtXtXtXtXF d.`.q q k.p.H U U U U U L S > U U L U U U U H > ; # # # > , ; % c.x.v.~ v.v.l.l.v.v.v.,XP #.+.+.o.u ",
"tXtX .+XOXOXt tXtXtXtXtXtXD S 6X3X,X1Xk.q L Y.3XS S H 8 % U U Y U U U U H > ; # # ; qX,XR.# p.v.v.~ v.v.l.l.l.(.'._.G H +.+.#.r ",
"tXtX  OXOXOXOX$XtXtXtXtX  tXtXs 3X5X2Xk.0 J 4X,XQ.Q.H D % !.^ U U U U U U Z O % % : qX,X:Xh.j.w.w.~ v.v.l.v.j.,X,Xo i   $.+.#.4 ",
"tX..OX+ XXXXXXoX` . tXtXX  .1./ m m 3XL.k.H 3X:X[.>XL H % ,X3XJ U U U U H >X,X> > > ; 3X6Xl.v.i.i.~ l.v.l.h.K.C.C.5.tXQ #.+.[ Q ",
"tXoXOX4.t *.oXXX-.$.1.tX3.| XX-.%.#.z G.h.G.3X1X3X3XQ.S Y.,X3X< F L U U U ,X,X>X>X< ~.{.].l.l.v v q.h.v.l.I.C.tXtXtXtXtX) #.4 tX",
"tXtXtXtXtXe &.&.#.@.[ tXtX@XoX.X+.+.+.8 u.f.L.:X3X,X5X4X3X1X,X4XF U T U 6 b.6X>X,X3X2X[.h.j.e.v v v.h.z.b.4X3.tXtXtXU L J @ tXtX",
"tXtXtXtXtXX #.O.#.#.$.tXX oXOX=.+.+.+.7 u.f.K.:X,X3X3X5X3X1X>XqXF F L U 6 l.7X>X:X8X:X[.h.j.e.b v v.h.v.l.4X3.tXtXtXU P P   tXtX",
"tXtXtXtXtX7 +.o.+.#.y tX| XXOX-.+.+.[ G Y H ! e.I.I.I.<X3X3X2X).r.r.c c m.q.z.].].(.I.h.k.0.b v.v.j.v.h i tXtXtXtXtXY U tXtXtXtX"
};
