/* XPM */
static char *result[] = {
/* columns rows colors chars-per-pixel */
"64 64 65 1 ",
"  c gray1",
". c #040404",
"X c gray2",
"o c #060606",
"O c gray3",
"+ c #090909",
"@ c gray4",
"# c #0B0B0B",
"$ c gray5",
"% c #202020",
"& c gray13",
"* c #505050",
"= c #535353",
"- c gray33",
"; c #555555",
": c #565656",
"> c gray34",
", c gray35",
"< c #5A5A5A",
"1 c #5B5B5B",
"2 c gray36",
"3 c #5D5D5D",
"4 c gray37",
"5 c #5F5F5F",
"6 c #606060",
"7 c gray38",
"8 c #686868",
"9 c #6A6A6A",
"0 c #6C6C6C",
"q c #6D6D6D",
"w c gray43",
"e c gray46",
"r c #777777",
"t c #7C7C7C",
"y c gray49",
"u c gray66",
"i c gray67",
"p c #B7B7B7",
"a c #BCBCBC",
"s c #C1C1C1",
"d c gray78",
"f c #C8C8C8",
"g c gray79",
"h c #CACACA",
"j c #CBCBCB",
"k c gray80",
"l c #CECECE",
"z c gray81",
"x c #D2D2D2",
"c c gray83",
"v c gray84",
"b c #D7D7D7",
"n c gray85",
"m c #DADADA",
"M c gray87",
"N c gray89",
"B c gray90",
"V c #E6E6E6",
"C c gray93",
"Z c #EFEFEF",
"A c gray99",
"S c #FDFDFD",
"D c #FEFEFE",
"F c white",
"G c None",
/* pixels */
"GGGGGGGGGGGGGGGGGGGGGGGGGGGGGGGGGGGGGGGGGGGGGGGGGGGGGGGGGGGGGGGG",
"GGGGGGGGGGGGGGGGGGGGGGGGGGGGGGGGGGGGGGGGGGGGGGGGGGGGGGGGGGGGGGGG",
"GGGGGGGGGGGGGGGGGGGGGGGGGGGGGGGGGGGGGGGGGGGGGGGGGGGGGGGGGGGGGGGG",
"GGGGGGGGGGGGGGGGGGGGGGGGGGGGGGGGGGGGGGGGGGGGGGGGGGGGGGGGGGGGGGGG",
"GGGGGGGGGGGGGGGGGGGGGGGGGGGGGGGGGGGGGGGGGGGGGGGGGGGGGGGGGGGGGGGG",
"GGGGGGGGGGGGGGGGGGGGGGGGGGGGGGGGGGGGGGGGGGGGGGGGGGGGGGGGGGGGGGGG",
"GGGGGGGGGGGGGGGGGGGGGGGGGGGGGGGGGGGGGGGGGGGGGGGGGGGGGGGGGGGGGGGG",
"GGGGGGGGGGGGGGGGGGGGGGGGGGGGGGGGGGGGGGGGGGGGGGGGGGGGGGGGGGGGGGGG",
"GGGGGGGGGGGGGGGGGGGGGGGGGGGGGGGGGGGGGGGGGGGGGGGGGGGGGGGGGGGGGGGG",
"GGGGGGGGGGGGGGGGGGGGGGGGGGGGGGGGGGGGGGGGGGGGGGGGGGGGGGGGGGGGGGGG",
"GGGGGGGGGGGGGGGGGGGGGGGGGGGGGGGG1<22422222GGGGGGGGGGGGGGGGGGGGGG",
"GGGGGGGGGGGGGGGGGGGGGGGGGGGGGG22dhgghggggg22GGGGGGGGGGGGGGGGGGGG",
"GGGGGGGGGGGGGGGGGGGGGGGGGGGG33DDDFFFFFFFgggg3GGGGGGGGGGGGGGGGGGG",
"GGGGGGGGGGGGGGGGGGGGGGGGGGGG,,FFFFFFFFFFgggg1GGGGGGGGGGGGGGGGGGG",
"GGGGGGGGGGGGGGGGGGGGGGGGGGG2DFFFFFFFFFFFggggg2GGGGGGGGGGGGGGGGGG",
"GGGGGGGGGGGGGGGGGGGGGGGGGG2FFFFFFFFFFFFFFFggg2GGGGGGGGGGGGGGGGGG",
"GGGGGGGGGGGGGGGGGGGGGGGGGG2FFFFFFFFFFFFFFFggg2GGGGGGGGGGGGGGGGGG",
"GGGGGGGGGGGGGGGGGGGGGGGGG2FFFFFFFFFFFFFFFFFggg32GGGGGGGGGGGGGGGG",
"GGGGGGGGGGGGGGGGGGGGGGGGG3FF$oFFFFFF&+FFFFFggg33GGGGGGGGGGGGGGGG",
"GGGGGGGGGGGGGGGGGGGGGGGGG2F@.oFFFFFF%#SFFFFggg32GGGGGGGGGGGGGGGG",
"GGGGGGGGGGGGGGGGGGGGGGGGG2FoooFFFFFF%.oFFFFggg32GGGGGGGGGGGGGGGG",
"GGGGGGGGGGGGGGGGGGGGGGGGG2F   FFFFFF%.ooFFFhhh32GGGGGGGGGGGGGGGG",
"GGGGGGGGGGGGGGGGGGGGGGGGG2FoooFFFFFF%.ooFFFgggi2GGGGGGGGGGGGGGGG",
"GGGGGGGGGGGGGGGGGGGGG22222FFFFFFFFFFFFFFFFFggg32GGGGGGGGGGGGGGGG",
"GGGGGGGGGGGGGGGGGGGG2FFFFFFFFFFFFFFFFFFFFFFggg32GGGGGGGGGGGGGGGG",
"GGGGGGGGGGGGGGGGGGG3FFFFFFgFFFoXoOFFFA22222ggg32GGGGGGGGGGGGGGGG",
"GGGGGGGGGGGGGGGGGGG3FFFFFFgFFFoXoOFFFA22222ggg32GGGGGGGGGGGGGGGG",
"GGGGGGGGGGGGGGGGGGG3FFFFFFgFFFFFFFFFq5FFFFF2gghg2GGGGGGGGGGGGGGG",
"GGGGGGGGGGGGGGGGG18FFFFFFggFFFFFFFF<VFFFFFFF2ghgg3GGGGGGGGGGGGGG",
"GGGGGGGGGGGGGGGGG18FFFFFNggFFFFFFD4FSFFFFFFFgghgg3GGGGGGGGGGGGGG",
"GGGGGGGGGGGGGGGGG5qFFFZChhhFFFFFFA6FFFFFFFFFhhhhh6GGGGGGGGGGGGGG",
"GGGGGGGGGGGGGGGGG18FFFgggggFFFFFFA2DFFFFFFFFgghgg3GGGGGGGGGGGGGG",
"GGGGGGGGGGGGGGGGG19FFFghgggFFFFFFA2245FFFFFFgghgg3GGGGGGGGGGGGGG",
"GGGGGGGGGGGGGGGGGGG22222gggFFFjFFFF<VA2FFFFFgghgg3GGGGGGGGGGGGGG",
"GGGGGGGGGGGGGGGGGGGG1ggg2ggFFFgFFFF<VA2FFFFFggNgg3GGGGGGGGGGGGGG",
"GGGGGGGGGGGGGGGGGGGGG2gg2ggFFFkFFFDhq6F2FFFFgggggg4-GGGGGGGGGGGG",
"GGGGGGGGGGGGGGGGGGGGGG161hhFFFhDFFDh07FS22FFAAjhhh2;GGGGGGGGGGGG",
"GGGGGGGGGGGGGGGGGGGGGG=*2ggFFFgFFFDhw2FF22FFFFhggg4-GGGGGGGGGGGG",
"GGGGGGGGGGGGGGGGGGGGGGGG2ggFFFgFFFDhhd2F22FFFFhggg4-GGGGGGGGGGGG",
"GGGGGGGGGGGGGGGGGGGGGGGG2ggFFFgFFFDhhd2F22FFgDhggg4-GGGGGGGGGGGG",
"GGGGGGGGGGGGGGGGGGGGGGGGuggFFFgFFFDhhggr22FFgDhggg4-GGGGGGGGGGGG",
"GGGGGGGGGGGGGGGGGGGGGGGG2ggFFFgFFFDhhggg22FFgghggghx2GGGGGGGGGGG",
"GGGGGGGGGGGGGGGGGGGGGGGG2ggFFFgFFFDhhggggg2Fgghggghx2GGGGGGGGGGG",
"GGGGGGGGGGGGGGGGGGGGGGGG2ggFFFgFFFDhhgggggkFFdhggghx2GGGGGGGGGGG",
"GGGGGGGGGGGGGGGGGGGGGGGG2ggFFFgFFFDhhggggghFFghggghx2GGGGGGGGGGG",
"GGGGGGGGGGGGGGGGGGGGGGGG2ggFFFgFFFDhhggggghFFghggghx2GGGGGGGGGGG",
"GGGGGGGGGGGGGGGGGGGGGGGG2ggFFFghSFDhhggggghFFmNMBghx2GGGGGGGGGGG",
"GGGGGGGGGGGGGGGGGGGGGGGG2gggDFghSFFFzgggggghFFjgbghgg2GGGGGGGGGG",
"GGGGGGGGGGGGGGGGGGGGGGGG4fhhDFhhDFFFlghhhhhgSDhhhhhhh2GGGGGGGGGG",
"GGGGGGGGGGGGGGGGGGGGGGGGG2ghDFhhDDFFzggggggghDhggghgg2GGGGGGGGGG",
"GGGGGGGGGGGGGGGGGGGGGGGGG2g2222221FFzggggggggDFFgghgg2GGGGGGGGGG",
"GGGGGGGGGGGGGGGGGGGGGGGGG22ggggh3<1jhggggggggghggghgg2GGGGGGGGGG",
"GGGGGGGGGGGGGGGGGGGGGGGGG22ggggh31F<sggggggggghggghggg3>GGGGGGGG",
"GGGGGGGGGGGGGGGGGGGGGGGGGG2222222<22sggfgggggghggghggg:>GGGGGGGG",
"GGGGGGGGGGGGGGGGGGGGGGGGGGGGGGG6nvc3eytttttthhhhhhhhhhpayGGGGGGG",
"GGGGGGGGGGGGGGGGGGGGGGGGGGGGGGG2AFF<42222222gghggghggggj2GGGGGGG",
"GGGGGGGGGGGGGGGGGGGGGGGGGGGGGGG22<22GGGGGGGG22222222222122GGGGGG",
"GGGGGGGGGGGGGGGGGGGGGGGGGGGGGGGGGGGGGGGGGGGGGGGGGGGGGGGGGGGGGGGG",
"GGGGGGGGGGGGGGGGGGGGGGGGGGGGGGGGGGGGGGGGGGGGGGGGGGGGGGGGGGGGGGGG",
"GGGGGGGGGGGGGGGGGGGGGGGGGGGGGGGGGGGGGGGGGGGGGGGGGGGGGGGGGGGGGGGG",
"GGGGGGGGGGGGGGGGGGGGGGGGGGGGGGGGGGGGGGGGGGGGGGGGGGGGGGGGGGGGGGGG",
"GGGGGGGGGGGGGGGGGGGGGGGGGGGGGGGGGGGGGGGGGGGGGGGGGGGGGGGGGGGGGGGG",
"GGGGGGGGGGGGGGGGGGGGGGGGGGGGGGGGGGGGGGGGGGGGGGGGGGGGGGGGGGGGGGGG",
"GGGGGGGGGGGGGGGGGGGGGGGGGGGGGGGGGGGGGGGGGGGGGGGGGGGGGGGGGGGGGGGG"
};
