/* XPM */
static char *result[] = {
/* columns rows colors chars-per-pixel */
"64 64 15 1 ",
"  c #170F24",
". c #1C2B35",
"X c #234B1B",
"o c #625613",
"O c #2A1B41",
"+ c #3A2F5A",
"@ c #2A4150",
"# c #3C5C71",
"$ c #5EBE4B",
"% c #B5A75A",
"& c #6A45A5",
"* c #5E978E",
"= c #FAFFA5",
"- c #FDFFD6",
"; c None",
/* pixels */
";;;;;;;;;;;;;;;;;;;;;;;;;;;;;;;;;;;;;;;;;;;;;;;;;;;;;;;;;;;;;;;;",
";;;;;;;;;;;;;;;;;;;;;;;;;;;;;;;;;;;;;;;;;;;;;;;;;;;;;;;;;;;;;;;;",
";;;;;;;;;;;;;;;;;;;;;;;;;;;;;;;;;;;;;;;;;;;;;;;;;;;;;;;;;;;;;;;;",
";;;;;;;;;;;;;;;;;;;;;;;;;;;;;;;;;;;;;;;;;;;;;;;;;;;;;;;;;;;;;;;;",
";;;;;;;;;;;;;;;;;;;;;;;;;;;;;;;;;;;;;;;;;;;;;;;;;;;;;;;;;;;;;;;;",
";;;;;;;;;;;;;;;;&&;;;;;;;;;;;;;;;;;;;;;;;;;;;;&&;;;;;;;;;;;;;;;;",
";;;;;;;;;;;;;;;;O&&;;;;;;;;;;;;;;;;;;;;;;;;;;&& ;;;;;;;;;;;;;;;;",
";;;;;;;;;;;;;;;;O&&&&;;;;;;;;;;;;;;;;;;;;;;;&&+ ;;;;;;;;;;;;;;;;",
";;;;;;;;;;;;;;;;O+&&&&;;;;;;;;;;;;;;;;;;;;&&&&+ ;;;;;;;;;;;;;;;;",
";;;;;;;;;;;;;;; O++&&&&;;;;;;;;;;;;;;;;;;&&&+++O ;;;;;;;;;;;;;;;",
";;;;;;;;;;;;;;; O++++&&&&;;;;;;;;;;;;;;&&&&++++O ;;;;;;;;;;;;;;;",
";;;;;;;;;;;;;;; O+++++&&&&&&&&&&&&&&&&&&&++++++O ;;;;;;;;;;;;;;;",
";;;;;;;;;;;;;;; O++++++&&++++++++++++++&&++++++O ;;;;;;;;;;;;;;;",
";;;;;;;;;;;;;;; O+++O+&++++++++++++++++++&+++++O ;;;;;;;;;;;;;;;",
";;;;;;;;;;;;;;; OO+O&++++++++++++++++++++++O+++O ;;;;;;;;;;;;;;;",
";;;;;;;;;;;;;;; OOO&+++++++++++++++++++++++&O+OO ;;;;;;;;;;;;;;;",
";;;;;;;;;;;;;;; OOO&++++++++++++++++++++++++&OOO ;;;;;;;;;;;;;;;",
";;;;;;;;;;;;;;;; O&++++++++&&&&&&&&&&+++++++&OO ;;;;;;;;;;;;;;;;",
";;;;;;;;;;;;;;;;  +++++++&&%%%%%%%%%%&&++++++&  ;;;;;;;;;;;;;;;;",
";;;;;;;;;;;;;;;; ++++++&&%%%%%%%%%%%%%%&&++++++ ;;;;;;;;;;;;;;;;",
";;;;;;;;;;;;;;; ++++++&%%%%%%%%%%%%%%%%%%&++++++ ;;;;;;;;;;;;;;;",
";;;;;;;;;;;;;;; +++++&%%%%%=========%%%%%%&+++++ ;;;;;;;;;;;;;;;",
";;;;;;;;;;;;;; ++++++&%%%=============%%%%&++++++ ;;;;;;;;;;;;;;",
";;;;;;;;;;;;; +++++++&%%====oo====oo====%%&+++++++ ;;;;;;;;;;;;;",
";;;;;;;;;;;; +++++++%%====================% +++++++ ;;;;;;;;;;;;",
";;;;;;;;;;; OO+++++ %===oo$$-======-$$oo===% +++++OO ;;;;;;;;;;;",
";;;;;;;;;;;;  OO+++ %==--$$X$-====-$X$$--==% +++OO  ;;;;;;;;;;;;",
";;;;;;;;;;;;;;  OOOO %===-$X$$====$$X$-===% OOOO  ;;;;;;;;;;;;;;",
";;;;;;;;;;;;;;;;  OOO %========--========% OOO  ;;;;;;;;;;;;;;;;",
";;;;;;;;;;;;;;;;;;     %=======oo=======%     ;;;;;;;;;;;;;;;;;;",
";;;;;;;;;;;;;;;;;;;;;;    ============    ;;;;;;;;;;;;;;;;;;;;;;",
";;;;;;;;;;;;;;;;;;;;;;;  O     ..     O  ;;;;;;;;;;;;;;;;;;;;;;;",
";;;;;;;;;;;;;;;;;;;;;;;; OO.###..###.OO ;;;;;;;;;;;;;;;;;;;;;;;;",
";;;;;;;;;;;;;;;;;;;;;;; OO.**#.%%.#**.OO ;;;;;;;;;;;;;;;;;;;;;;;",
";;;;;;;;;;;;;;;;;;;;;; OOO.*#@.%%.@#*.OOO ;;;;;;;;--;;;;;;;;;;;;",
";;;;;;;;;;;;;;;;;;;;;; OOO.@@.%%%%.@@.OOO ;;;;;;-===-;;;;;;;;;;;",
";;;;;;;;;;;;;;;;;;;;; +++OO..%%==%%..OO+++ ;;;;%===%%;;;;;;;;;;;",
";;;;;;;;;;;;;;;;;;;;; ++++O %%====%% O++++ ;;;%===%;;;;;;;;;;;;;",
";;;;;;;;;;;;;;;;;;;; +++++ %%======%% +++++ ;o%%%;;;;;;;;;;;;;;;",
";;;;;;;;;;;;;;;;;;;; ++++ %%========%% ++++ o%%o;;;;;;;;;;;;;;;;",
";;;;;;;;;;;;;;;;;;; +++++ %==========% +++++ %o;;;;;;;;;;;;;;;;;",
";;;;;;;;;;;;;;;;;;; +++++ ============ +++++ o;;;;;;;;;;;;;;;;;;",
";;;;;;;;;;;;;;;;;;; ++++ ==%========%== ++++ ;;;;;;;;;;;;;;;;;;;",
";;;;;;;;;;;;;;;;;; O++++ ==%==-%%-==%== ++++O ;;;;;;;;;;;;;;;;;;",
";;;;;;;;;;;;;;;;;; O++++ ==%o=-%%-=o%== ++++O ;;;;;;;;;;;;;;;;;;",
";;;;;;;;;;;;;;;;; OO++++ ===o--oo--o=== ++++OO ;;;;;;;;;;;;;;;;;",
";;;;;;;;;;;;;;;;; O+++++ ===%o-oo-o%=== +++++O ;;;;;;;;;;;;;;;;;",
";;;;;;;;;;;;;;;; O+++++ %====%oooo%====% +++++O ;;;;;;;;;;;;;;;;",
";;;;;;;;;;;;;;; ++++O++ %=====%%%%=====% ++O++++ ;;;;;;;;;;;;;;;",
";;;;;;;;;;;;;; ++++++++ %==============% ++++++++ ;;;;;;;;;;;;;;",
";;;;;;;;;;;;; ++O++++++ %==============% ++++++O++ ;;;;;;;;;;;;;",
";;;;;;;;;;;; ++++++O+++ %==============% +++O++++++ ;;;;;;;;;;;;",
";;;;;;;;;;; ++O++++++++ %==============%O+++++++++++ ;;;;;;;;;;;",
";;;;;;;;;;; ++++++O++++O =====----===== O++++O++++++ ;;;;;;;;;;;",
";;;;;;;;;;;; OO++OO++++O =====%%%%===== O++++OO++OO ;;;;;;;;;;;;",
";;;;;;;;;;;;;  OOOOOOOOO %===%oooo%===% OOOOOOOOO  ;;;;;;;;;;;;;",
";;;;;;;;;;;;;;;   OOOOOO %%%%o;;;;o%%%% OOOOOO   ;;;;;;;;;;;;;;;",
";;;;;;;;;;;;;;;;;;      ;o---o;;;;o---o;      ;;;;;;;;;;;;;;;;;;",
";;;;;;;;;;;;;;;;;;;;;;;;;;ooo;;;;;;ooo;;;;;;;;;;;;;;;;;;;;;;;;;;",
";;;;;;;;;;;;;;;;;;;;;;;;;;;;;;;;;;;;;;;;;;;;;;;;;;;;;;;;;;;;;;;;",
";;;;;;;;;;;;;;;;;;;;;;;;;;;;;;;;;;;;;;;;;;;;;;;;;;;;;;;;;;;;;;;;",
";;;;;;;;;;;;;;;;;;;;;;;;;;;;;;;;;;;;;;;;;;;;;;;;;;;;;;;;;;;;;;;;",
";;;;;;;;;;;;;;;;;;;;;;;;;;;;;;;;;;;;;;;;;;;;;;;;;;;;;;;;;;;;;;;;",
";;;;;;;;;;;;;;;;;;;;;;;;;;;;;;;;;;;;;;;;;;;;;;;;;;;;;;;;;;;;;;;;"
};