/* XPM */
static char *result[] = {
/* columns rows colors chars-per-pixel */
"64 64 15 1 ",
"  c #170F24",
". c #1C2B35",
"X c #234B1B",
"o c #625613",
"O c #2A1B41",
"+ c #3A2F5A",
"@ c #2A4150",
"# c #5EBE4B",
"$ c #B5A75A",
"% c #6A45A5",
"& c #5E978E",
"* c #73A8A0",
"= c #FAFFA5",
"- c #FDFFD6",
"; c None",
/* pixels */
";;;;;;;;;;;;;;;;;;;;;;;;;;;;;;;;;;;;;;;;;;;;;;;;;;;;;;;;;;;;;;;;",
";;;;;;;;;;;;;;;;;;;;;;;;;;;;;;;;;;;;;;;;;;;;;;;;;;;;;;;;;;;;;;;;",
";;;;;;;;;;;;;;;;;;;;;;;;;;;;;;;;;;;;;;;;;;;;;;;;;;;;;;;;;;;;;;;;",
";;;;;;;;;;;;;;;;;;;;;;;;;;;;;;;;;;%;;;%;;;;;;;;;;;;;;;;;;;;;;;;;",
";;;;;;;;;;;;;;;;;;;;;;;;;;;;;;;;;%%;;%%;;;;;;;;;;;;;;;;;;;;;;;;;",
";;;;;;;;;;;;;;;;;;;;;;;;;;;;;;;;%%+ %% ;;;;;;;;;;;;;;;;;;;;;;;;;",
";;;;;;;;;;;;;;;;;;;;;;;;;;;;;;;%%+O%%++ ;;;;;;;;;;;;;;;;;;;;;;;;",
";;;;;;;;;;;;;;;;;;;;;;;;;;;;;;%%+O%%+++ ;;;;;;;;;;;;;;;;;;;;;;;;",
";;;;;;;;;;;;;;;;;;;;;;;;;;;;;%%O%%%++++ ;;;;;;;;;;;;;;;;;;;;;;;;",
";;;;;;;;;;;;;;;;;;;;;;;;;;;;%O%%%%+++++O ;;;;;;;;;;;;;;;;;;;;;;;",
";;;;;;;;;;;;;;;;;;;;;;;;;%%%%%%%+++++++O ;;;;;;;;;;;;;;;;;;;;;;;",
";;;;;;;;;;;;;;;;;;;;;;;%%%%%%%OO++++++OO ;;;;;;;;;;;;;;;;;;;;;;;",
";;;;;;;;;;;;;;;;;;;;;%%%++++++++O++++OOO ;;;;;;;;;;;;;;;;;;;;;;;",
";;;;;;;;;;;;;;;;;;;;%%++++++++++++OOOOOO ;;;;;;;;;;;;;;;;;;;;;;;",
";;;;;;;;;;;;;;;;;;;%%++++++++++++++OOOOO ;;;;;;;;;;;;;;;;;;;;;;;",
";;;;;;;;;;;;;;;;;;;%%%++++++++++++++OOOO ;;;;;;;;;;;;;;;;;;;;;;;",
";;;;;;;;;;;;;;;;;;;;$$%%++++++++++++++OO ;;;;;;;;;;;;;;;;;;;;;;;",
";;;;;;;;;;;;;;;;;;;$==$$%%+++++++++++++ ;;;;;;;;;;;;;;;;;;;;;;;;",
";;;;;;;;;;;;;;;;;;;$-====$%+++++++++++++ ;;;;;;;;;;;;;;;;;;;;;;;",
";;;;;;;;;;;;;;;;;;;=oo$===%+++++++++++++ ;;;;;;;;;;;;;;;;;;;;;;;",
";;;;;;;;;;;;;;;;;;;=======$%++++++++++++O ;;;;;;;;;;;;;;;;;;;;;;",
";;;;;;;;;;;;;;;;;;;==$-====%++++++++++++O ;;;;;;;;;;;;;;;;;;;;;;",
";;;;;;;;;;;;;;;;;;;==X#oo==%O++++++++++++O ;;;;;;;;;;;;;;;;;;;;;",
";;;;;;;;;;;;;;;;;;;==X##-==$%O+++++++++++++ ;;;;;;;;;;;;;;;;;;;;",
";;;;;;;;;;;;;;;;;;===X#---==$%O+++++++++++OO ;;;;;;;;;;;;;;;;;;;",
";;;;;;;;;;;;;;;;;oo-==--====$$%O+++++++++OOOO ;;;;;;;;;;;;;;;;;;",
";;;;;;;;;;;;;;;;;$=========$$ O+++++++++OOOO ;;;;;;;;;;;;;;;;;;;",
";;;;;;;;;;;;;;;;;$========$$ O++++++++OOOOO ;;;;;;;;;;;;;;;;;;;;",
";;;;;;;;;;;;;;;;;;$======$$ O++++++++OOOO  ;;;;;;;;;;;;;;;;;;;;;",
";;;;;;;;;;;;;;;;;;;$====$$ O++++++OOOOO  ;;;;;;;;;;;;;;;;;;;;;;;",
";;;;;;;;;;;;;;;;;;;;;$$$  OOOOOOOOOOO  ;;;;;;;;;;;;;;;;;;;;;;;;;",
";;;;;;;;;;;;;;;;;;;;;;;              ;;;;;;;;;;;;;;;;;;;;;;;;;;;",
";;;;;;;;;;;;;;;;;;;;;;;@@. OOOOOO ;;;;;;;;;;;;;;;;;;;;;;;;;;;;;;",
";;;;;;;;;;;;;;;;;;;;;;*&@. OOOOOOO ;;;;;;;;;;;;;;;;;;;;;;;;;;;;;",
";;;;;;;;;;;;;;;;;;;;;*&@.o OOOOOOO ;;;;;;;;;;;;;;;;;;;;;;;;;;;;;",
";;;;;;;;;;;;;;;;;;;;;&@.oo OO+OOOOO ;;;;;;;;;;;;;;;;;;;;;;;;;;;;",
";;;;;;;;;;;;;;;;;;;;;..ooo O++O+OOO ;;;;;;;;;;;;;;;;;;;;;;;;;;;;",
";;;;;;;;;;;;;;;;;;;;;;$=$o O++O+++OO ;;;;;;;;;;;;;;;;;;;;;;;;;;;",
";;;;;;;;;;;;;;;;;;;;;;$=$$ O+++O++O+ ;;;;;;;;;;;;;;;;;;;;;;;;;;;",
";;;;;;;;;;;;;;;;;;;;;;$-=$o +++O+++++ ;;;;;;;;;;;;;;;;;;;;;;;;;;",
";;;;;;;;;;;;;;;;;;;;;;--==o +++++++++ ;;;;;;;;;;;;;;;;;;;;;;;;;;",
";;;;;;;;;;;;;;;;;;;;;--==$o +++O++++++ ;;;;;;;;;;;;;;;;;;;;;;;;;",
";;;;;;;;;;;;;;;;;;;;;-==$oo ++++++++++ ;;;;;;;;;;---;;;;;;;;;;;;",
";;;;;;;;;;;;;;;;;;;;--=$$oo +++++++++++ ;;;;;;;;-===-;;;;;;;;;;;",
";;;;;;;;;;;;;;;;;;;;$==$o=o ++++++++++++ ;;;;;;;=====;;;;;;;;;;;",
";;;;;;;;;;;;;;;;;;;;$=$o==$ +++++++++++++ ;;;;;-====;;;;;;;;;;;;",
";;;;;;;;;;;;;;;;;;;;o=o$==$ ++++++++++++++ ;;;;==$;;;;;;;;;;;;;;",
";;;;;;;;;;;;;;;;;;;;;oo$==$ +++++++++++++++ ;;;=$$;;;;;;;;;;;;;;",
";;;;;;;;;;;;;;;;;;;;;;;$==$ +++++++++++O++++ ;;$$$;;;;;;;;;;;;;;",
";;;;;;;;;;;;;;;;;;;;;;;$==$ +++O++O++++++++++ ;$oo;;;;;;;;;;;;;;",
";;;;;;;;;;;;;;;;;;;;;;;$== +++++++++++++O++++ ooo;;;;;;;;;;;;;;;",
";;;;;;;;;;;;;;;;;;;;;;;$== ++++O+++O+++++O++O ooo;;;;;;;;;;;;;;;",
";;;;;;;;;;;;;;;;;;;;;;;$== ++++O+++O++++++OO ooo;;;;;;;;;;;;;;;;",
";;;;;;;;;;;;;;;;;;;;;;;$== +++++O+++O++++OO ;;;;;;;;;;;;;;;;;;;;",
";;;;;;;;;;;;;;;;;;;;;;;o$$O+++++O++OOOOOO  ;;;;;;;;;;;;;;;;;;;;;",
";;;;;;;;;;;;;;;;;;;;;;ooo$OO+++OOOOO     ;;;;;;;;;;;;;;;;;;;;;;;",
";;;;;;;;;;;;;;;;;;;;==$oooOOOOOO    o;;;;;;;;;;;;;;;;;;;;;;;;;;;",
";;;;;;;;;;;;;;;;;;;;==$$o;      oooo;;;;;;;;;;;;;;;;;;;;;;;;;;;;",
";;;;;;;;;;;;;;;;;;;;;$$$;;;;;;;o$$$;;;;;;;;;;;;;;;;;;;;;;;;;;;;;",
";;;;;;;;;;;;;;;;;;;;;;;;;;;;;;;;;;;;;;;;;;;;;;;;;;;;;;;;;;;;;;;;",
";;;;;;;;;;;;;;;;;;;;;;;;;;;;;;;;;;;;;;;;;;;;;;;;;;;;;;;;;;;;;;;;",
";;;;;;;;;;;;;;;;;;;;;;;;;;;;;;;;;;;;;;;;;;;;;;;;;;;;;;;;;;;;;;;;",
";;;;;;;;;;;;;;;;;;;;;;;;;;;;;;;;;;;;;;;;;;;;;;;;;;;;;;;;;;;;;;;;",
";;;;;;;;;;;;;;;;;;;;;;;;;;;;;;;;;;;;;;;;;;;;;;;;;;;;;;;;;;;;;;;;"
};