/* XPM */
static char *result[] = {
/* columns rows colors chars-per-pixel */
"64 64 15 1 ",
"  c #170F24",
". c #1C2B35",
"X c #234B1B",
"o c #625613",
"O c #2A1B41",
"+ c #3A2F5A",
"@ c #2A4150",
"# c #5EBE4B",
"$ c #B5A75A",
"% c #6A45A5",
"& c #5E978E",
"* c #73A8A0",
"= c #FAFFA5",
"- c #FDFFD6",
"; c None",
/* pixels */
";;;;;;;;;;;;;;;;;;;;;;;;;;;;;;;;;;;;;;;;;;;;;;;;;;;;;;;;;;;;;;;;",
";;;;;;;;;;;;;;;;;;;;;;;;;;;;;;;;;;;;;;;;;;;;;;;;;;;;;;;;;;;;;;;;",
";;;;;;;;;;;;;;;;;;;;;;;;;;;;;;;;;;;;;;;;;;;;;;;;;;;;;;;;;;;;;;;;",
";;;;;;;;;;;;;;;;;;;;;;;;;%;;;%;;;;;;;;;;;;;;;;;;;;;;;;;;;;;;;;;;",
";;;;;;;;;;;;;;;;;;;;;;;;;%%;;%%;;;;;;;;;;;;;;;;;;;;;;;;;;;;;;;;;",
";;;;;;;;;;;;;;;;;;;;;;;;; %% +%%;;;;;;;;;;;;;;;;;;;;;;;;;;;;;;;;",
";;;;;;;;;;;;;;;;;;;;;;;; ++%%O+%%;;;;;;;;;;;;;;;;;;;;;;;;;;;;;;;",
";;;;;;;;;;;;;;;;;;;;;;;; +++%%O+%%;;;;;;;;;;;;;;;;;;;;;;;;;;;;;;",
";;;;;;;;;;;;;;;;;;;;;;;; ++++%%%O%%;;;;;;;;;;;;;;;;;;;;;;;;;;;;;",
";;;;;;;;;;;;;;;;;;;;;;; O+++++%%%%O%;;;;;;;;;;;;;;;;;;;;;;;;;;;;",
";;;;;;;;;;;;;;;;;;;;;;; O+++++++%%%%%%%;;;;;;;;;;;;;;;;;;;;;;;;;",
";;;;;;;;;;;;;;;;;;;;;;; OO++++++OO%%%%%%%;;;;;;;;;;;;;;;;;;;;;;;",
";;;;;;;;;;;;;;;;;;;;;;; OOO++++O++++++++%%%;;;;;;;;;;;;;;;;;;;;;",
";;;;;;;;;;;;;;;;;;;;;;; OOOOOO++++++++++++%%;;;;;;;;;;;;;;;;;;;;",
";;;;;;;;;;;;;;;;;;;;;;; OOOOO++++++++++++++%%;;;;;;;;;;;;;;;;;;;",
";;;;;;;;;;;;;;;;;;;;;;; OOOO++++++++++++++%%%;;;;;;;;;;;;;;;;;;;",
";;;;;;;;;;;;;;;;;;;;;;; OO++++++++++++++%%$$;;;;;;;;;;;;;;;;;;;;",
";;;;;;;;;;;;;;;;;;;;;;;; +++++++++++++%%$$==$;;;;;;;;;;;;;;;;;;;",
";;;;;;;;;;;;;;;;;;;;;;; +++++++++++++%$====-$;;;;;;;;;;;;;;;;;;;",
";;;;;;;;;;;;;;;;;;;;;;; +++++++++++++%===$oo=;;;;;;;;;;;;;;;;;;;",
";;;;;;;;;;;;;;;;;;;;;; O++++++++++++%$=======;;;;;;;;;;;;;;;;;;;",
";;;;;;;;;;;;;;;;;;;;;; O++++++++++++%====-$==;;;;;;;;;;;;;;;;;;;",
";;;;;;;;;;;;;;;;;;;;; O++++++++++++O%==oo#X==;;;;;;;;;;;;;;;;;;;",
";;;;;;;;;;;;;;;;;;;; +++++++++++++O%$==-##X==;;;;;;;;;;;;;;;;;;;",
";;;;;;;;;;;;;;;;;;; OO+++++++++++O%$==---#X===;;;;;;;;;;;;;;;;;;",
";;;;;;;;;;;;;;;;;; OOOO+++++++++O%$$====--==-oo;;;;;;;;;;;;;;;;;",
";;;;;;;;;;;;;;;;;;; OOOO+++++++++O $$=========$;;;;;;;;;;;;;;;;;",
";;;;;;;;;;;;;;;;;;;; OOOOO++++++++O $$========$;;;;;;;;;;;;;;;;;",
";;;;;;;;;;;;;;;;;;;;;  OOOO++++++++O $$======$;;;;;;;;;;;;;;;;;;",
";;;;;;;;;;;;;;;;;;;;;;;  OOOOO++++++O $$====$;;;;;;;;;;;;;;;;;;;",
";;;;;;;;;;;;;;;;;;;;;;;;;  OOOOOOOOOOO  $$$;;;;;;;;;;;;;;;;;;;;;",
";;;;;;;;;;;;;;;;;;;;;;;;;;;              ;;;;;;;;;;;;;;;;;;;;;;;",
";;;;;;;;;;;;;;;;;;;;;;;;;;;;;; OOOOOO .@@;;;;;;;;;;;;;;;;;;;;;;;",
";;;;;;;;;;;;;;;;;;;;;;;;;;;;; OOOOOOO .@&*;;;;;;;;;;;;;;;;;;;;;;",
";;;;;;;;;;;;;;;;;;;;;;;;;;;;; OOOOOOO o.@&*;;;;;;;;;;;;;;;;;;;;;",
";;;;;;;;;;;;;;;;;;;;;;;;;;;; OOOOO+OO oo.@&;;;;;;;;;;;;;;;;;;;;;",
";;;;;;;;;;;;;;;;;;;;;;;;;;;; OOO+O++O ooo..;;;;;;;;;;;;;;;;;;;;;",
";;;;;;;;;;;;;;;;;;;;;;;;;;; OO+++O++O o$=$;;;;;;;;;;;;;;;;;;;;;;",
";;;;;;;;;;;;;;;;;;;;;;;;;;; +O++O+++O $$=$;;;;;;;;;;;;;;;;;;;;;;",
";;;;;;;;;;;;;;;;;;;;;;;;;; +++++O+++ o$=-$;;;;;;;;;;;;;;;;;;;;;;",
";;;;;;;;;;;;;;;;;;;;;;;;;; +++++++++ o==--;;;;;;;;;;;;;;;;;;;;;;",
";;;;;;;;;;;;;;;;;;;;;;;;; ++++++O+++ o$==--;;;;;;;;;;;;;;;;;;;;;",
";;;;;;;;;;;;---;;;;;;;;;; ++++++++++ oo$==-;;;;;;;;;;;;;;;;;;;;;",
";;;;;;;;;;;-===-;;;;;;;; +++++++++++ oo$$=--;;;;;;;;;;;;;;;;;;;;",
";;;;;;;;;;;=====;;;;;;; ++++++++++++ o=o$==$;;;;;;;;;;;;;;;;;;;;",
";;;;;;;;;;;;====-;;;;; +++++++++++++ $==o$=$;;;;;;;;;;;;;;;;;;;;",
";;;;;;;;;;;;;;$==;;;; ++++++++++++++ $==$o=o;;;;;;;;;;;;;;;;;;;;",
";;;;;;;;;;;;;;$$=;;; +++++++++++++++ $==$oo;;;;;;;;;;;;;;;;;;;;;",
";;;;;;;;;;;;;;$$$;; ++++O+++++++++++ $==$;;;;;;;;;;;;;;;;;;;;;;;",
";;;;;;;;;;;;;;oo$; ++++++++++O++O+++ $==$;;;;;;;;;;;;;;;;;;;;;;;",
";;;;;;;;;;;;;;;ooo ++++O+++++++++++++ ==$;;;;;;;;;;;;;;;;;;;;;;;",
";;;;;;;;;;;;;;;ooo O++O+++++O+++O++++ ==$;;;;;;;;;;;;;;;;;;;;;;;",
";;;;;;;;;;;;;;;;ooo OO++++++O+++O++++ ==$;;;;;;;;;;;;;;;;;;;;;;;",
";;;;;;;;;;;;;;;;;;;; OO++++O+++O+++++ ==$;;;;;;;;;;;;;;;;;;;;;;;",
";;;;;;;;;;;;;;;;;;;;;  OOOOOO++O+++++O$$o;;;;;;;;;;;;;;;;;;;;;;;",
";;;;;;;;;;;;;;;;;;;;;;;     OOOOO+++OO$ooo;;;;;;;;;;;;;;;;;;;;;;",
";;;;;;;;;;;;;;;;;;;;;;;;;;;o    OOOOOOooo$==;;;;;;;;;;;;;;;;;;;;",
";;;;;;;;;;;;;;;;;;;;;;;;;;;;oooo      ;o$$==;;;;;;;;;;;;;;;;;;;;",
";;;;;;;;;;;;;;;;;;;;;;;;;;;;;$$$o;;;;;;;$$$;;;;;;;;;;;;;;;;;;;;;",
";;;;;;;;;;;;;;;;;;;;;;;;;;;;;;;;;;;;;;;;;;;;;;;;;;;;;;;;;;;;;;;;",
";;;;;;;;;;;;;;;;;;;;;;;;;;;;;;;;;;;;;;;;;;;;;;;;;;;;;;;;;;;;;;;;",
";;;;;;;;;;;;;;;;;;;;;;;;;;;;;;;;;;;;;;;;;;;;;;;;;;;;;;;;;;;;;;;;",
";;;;;;;;;;;;;;;;;;;;;;;;;;;;;;;;;;;;;;;;;;;;;;;;;;;;;;;;;;;;;;;;",
";;;;;;;;;;;;;;;;;;;;;;;;;;;;;;;;;;;;;;;;;;;;;;;;;;;;;;;;;;;;;;;;"
};
