/* XPM */
static char *result[] = {
/* columns rows colors chars-per-pixel */
"64 64 10 1 ",
"  c #170F24",
". c #625613",
"X c #2A1B41",
"o c #3A2F5A",
"O c #3C5C71",
"+ c #B5A75A",
"@ c #6A45A5",
"# c #FAFFA5",
"$ c #FDFFD6",
"% c None",
/* pixels */
"%%%%%%%%%%%%%%%%%%%%%%%%%%%%%%%%%%%%%%%%%%%%%%%%%%%%%%%%%%%%%%%%",
"%%%%%%%%%%%%%%%%%%%%%%%%%%%%%%%%%%%%%%%%%%%%%%%%%%%%%%%%%%%%%%%%",
"%%%%%%%%%%%%%%%%%%%@%%%%%%%%%%%%%%%%%%%%%%%%%%@%%%%%%%%%%%%%%%%%",
"%%%%%%%%%%%%%%%%%% @@%%%%%%%%%%%%%%%%%%%%%%%%@@ %%%%%%%%%%%%%%%%",
"%%%%%%%%%%%%%%%%%% o@@%%%%%%%%%%%%%%%%%%%%%%@@o %%%%%%%%%%%%%%%%",
"%%%%%%%%%%%%%%%%% ooo@@%%%%%%%%%%%%%%%%%%%%@@ooo %%%%%%%%%%%%%%%",
"%%%%%%%%%%%%%%%%% ooo@@@%%%%%%%%%%%%%%%%%%@@@ooo %%%%%%%%%%%%%%%",
"%%%%%%%%%%%%%%%%% oooo@@@%%%%%%%%%%%%%%%%@@@oooo %%%%%%%%%%%%%%%",
"%%%%%%%%%%%%%%%% Xooooo@@@%%%%%%%%%%%%%%@@@oooooX %%%%%%%%%%%%%%",
"%%%%%%%%%%%%%%%% Xoooooo@@@@@@@@@@@@@@@@@@ooooooX %%%%%%%%%%%%%%",
"%%%%%%%%%%%%%%%% Xoooooooo@@@@@@@@@@@@@@ooooooooX %%%%%%%%%%%%%%",
"%%%%%%%%%%%%%%%% XooooooooooooooooooooooooooooooX %%%%%%%%%%%%%%",
"%%%%%%%%%%%%%%%% XooooooooooooooooooooooooooooooX %%%%%%%%%%%%%%",
"%%%%%%%%%%%%%%%% XXoooXXoooooooooooooooooooXXoooX %%%%%%%%%%%%%%",
"%%%%%%%%%%%%%%%% XXXXXXoooooooooooooooooooooXXXXX %%%%%%%%%%%%%%",
"%%%%%%%%%%%%%%%% XXXXooooooooooooooooooooooooXXXX %%%%%%%%%%%%%%",
"%%%%%%%%%%%%%%%%% XXooooooooooooooooooooooooooXX %%%%%%%%%%%%%%%",
"%%%%%%%%%%%%%%%%%  ooooooooooooooooooooooooooooXX%%%%%%%%%%%%%%%",
"%%%%%%%%%%%%%%%%% oooooooooooooooooooooooooooooo %%%%%%%%%%%%%%%",
"%%%%%%%%%%%%%%%% oooooooooooooooooooooooooooooooo %%%%%%%%%%%%%%",
"%%%%%%%%%%%%%%%% oooooooooooooooooooooooooooooooo %%%%%%%%%%%%%%",
"%%%%%%%%%%%%%%% Xooooooooooooooooooooooooooooooooo %%%%%%%%%%%%%",
"%%%%%%%%%%%%%% XXXooooooooooooooooooooooooooooooXXX %%%%%%%%%%%%",
"%%%%%%%%%%%%% XXXXXoooooooooooooooooooooooooooXXXXXX %%%%%%%%%%%",
"%%%%%%%%%%%% XXXXXXXXooooooooooooooooooooooXXXXXXXXXX %%%%%%%%%%",
"%%%%%%%%%%%%%  XXXXXXXXXXooooooooooooooXXXXXXXXXXXX  %%%%%%%%%%%",
"%%%%%%%%%%%%%%%  XXXXXXXXXXXXXXXXXXXXXXXXXXXXXXXX  %%%%%%%%%%%%%",
"%%%%%%%%%%%%%%%%%  XXXXXXXXXXXXXXXXXXXXXXXXXXXX  %%%%%%%%%%%%%%%",
"%%%%%%%%%%%%%%%%%%%     XXXXXXXXXXXXXXXXXX     %%%%%%%%%%%%%%%%%",
"%%%%%%%%%%%%%%%%%%%%%%%%   XXXXXXXXXXXX   %%%%%%%%%%%%%%%%%%%%%%",
"%%%%%%%%%%%%%%%%%%%%%%%%%%%            %%%%%%%%%%%%%%%%%%%%%%%%%",
"%%%%%%%%%%%%%%%%%%%%%%%%%% XOOOOOOOOOOX %%%%%%%%%%%%%%%%%%%%%%%%",
"%%%%%%%%%%%%%%%%%%%%%%%%% XXXXOOOOOOXXXX %%%%%%%%%%%%%%%%%%%%%%%",
"%%%%%%%%%%%%%%%%%%%%%%%% XXXXXXXXXXXXXXXX %%%%%%%%%%%%%%%%%%%%%%",
"%%%%%%%%%%%%%%%%%%%%%%% XXXXXXXXXXXXXXXXXX %%%%%%%%%%%%%%%%%%%%%",
"%%%%%%%%%%%%%%%%%%%%%%% XXXXXXXXXXXXXXXXXX %%%%%%%%%%%%%%%%%%%%%",
"%%%%%%%%%%%%%%%%%%%%%% ooooXXXXXXXXXXXXXooo %%%%%%%%%%%%%%%%%%%%",
"%%%%%%%%%%%%%%%%%%%%%% oooooooXXXXXXooooooo %%%%%%%%%%%%%%%%%%%%",
"%%%%%%%%%%%%%%%%%%%%% oooooooooooooooooooooo %%%%%%%%%%%%%%%%%%%",
"%%%%%%%%%%%%%%%%%%%%% oooooooooooooooooooooo %%%%%%%%%%%%%%%%%%%",
"%%%%%%%%%%%%%%%%%%%% oooooooooooooooo$$oooooo %%%%%%%%%%%%%%%%%%",
"%%%%%%%%%%%%%%%%%%%% ooooooooooooooo$##$ooooo %%%%%%%%%%%%%%%%%%",
"%%%%%%%%%%%%%%%%%%%% ooooooooooooooo####ooooo %%%%%%%%%%%%%%%%%%",
"%%%%%%%%%%%%%%%%%%% Xooooooooooooooo+###oooooX %%%%%%%%%%%%%%%%%",
"%%%%%%%%%%%%%%%%%%% Xoooooooooooooooo+##oooooX %%%%%%%%%%%%%%%%%",
"%%%%%%%%%%%%%%%%%% XXoooooooooooooooo###oooooXX %%%%%%%%%%%%%%%%",
"%%%%%%%%%%%%%%%%% XXooooooooooooooooo###ooooooXX %%%%%%%%%%%%%%%",
"%%%%%%%%%%%%%%%% Xooooooooooooooooooo###oooooooXX %%%%%%%%%%%%%%",
"%%%%%%%%%%%%%%% ooooooooooooooooooooo###ooXooooooX %%%%%%%%%%%%%",
"%%%%%%%%%%%%%  ooooooooooooXooooooooo+##ooooooooooo  %%%%%%%%%%%",
"%%%%%%%%%%%  ooooooooooooooooooooooo++++ooooooooooooo  %%%%%%%%%",
"%%%%%%%%%% oooooooooooXoooXooooooXXX++++ooooXoooooooooo %%%%%%%%",
"%%%%%%%%% ooooXooooooXooooooooooX  ++++oooooooooXooooooo %%%%%%%",
"%%%%%%%%%%  XXoooooooooooXXooooX .++++XXoooooXoooXoooo  %%%%%%%%",
"%%%%%%%%%%%%  XXoooXooooXXooXXX ..+++.X XXooooXoooXX  %%%%%%%%%%",
"%%%%%%%%%%%%%%  XXXXXXXXXXXX   .++++++.  XXXXXXXXX  %%%%%%%%%%%%",
"%%%%%%%%%%%%%%%%   XXXXXX   ...++++++... oXXXXX   %%%%%%%%%%%%%%",
"%%%%%%%%%%%%%%%%%%%      ................      %%%%%%%%%%%%%%%%%",
"%%%%%%%%%%%%%%%%%%%%%%%%%%.......%%.+++.%%%%%%%%%%%%%%%%%%%%%%%%",
"%%%%%%%%%%%%%%%%%%%%%%%%%%%.+++.%%%%...%%%%%%%%%%%%%%%%%%%%%%%%%",
"%%%%%%%%%%%%%%%%%%%%%%%%%%%.###.%%%%%%%%%%%%%%%%%%%%%%%%%%%%%%%%",
"%%%%%%%%%%%%%%%%%%%%%%%%%%%%...%%%%%%%%%%%%%%%%%%%%%%%%%%%%%%%%%",
"%%%%%%%%%%%%%%%%%%%%%%%%%%%%%%%%%%%%%%%%%%%%%%%%%%%%%%%%%%%%%%%%",
"%%%%%%%%%%%%%%%%%%%%%%%%%%%%%%%%%%%%%%%%%%%%%%%%%%%%%%%%%%%%%%%%"
};
