/* XPM */
static char *_c6e5cc0c6f841fa89c05d22d8a5a603[] = {
/* columns rows colors chars-per-pixel */
"64 64 214 2 ",
"   c #030204",
".  c #090305",
"X  c #03010C",
"o  c #0A020C",
"O  c #050214",
"+  c #0B0214",
"@  c #06011A",
"#  c #0B011B",
"$  c #060918",
"%  c #0D081F",
"&  c #130112",
"*  c #150812",
"=  c #12031D",
"-  c #1A011C",
";  c #070220",
":  c #0C0324",
">  c #040028",
",  c #0D022B",
"<  c #130224",
"1  c #1B0024",
"2  c #160821",
"3  c #13022C",
"4  c #1B012C",
"5  c #110C2C",
"6  c #1E082F",
"7  c #150233",
"8  c #1C0234",
"9  c #130830",
"0  c #15023C",
"q  c #1C013B",
"w  c #1A083A",
"e  c #210126",
"r  c #22022D",
"t  c #230334",
"y  c #290336",
"u  c #200A31",
"i  c #24023D",
"p  c #28023F",
"a  c #0C0644",
"s  c #150141",
"d  c #1D0144",
"f  c #1E0944",
"g  c #1D024B",
"h  c #1E0353",
"j  c #1E035C",
"k  c #230244",
"l  c #2A0245",
"z  c #230945",
"x  c #24024B",
"c  c #2A024D",
"v  c #240A4C",
"b  c #2A084C",
"n  c #320045",
"m  c #32024D",
"M  c #39044D",
"N  c #310C4F",
"B  c #2F114D",
"V  c #250253",
"C  c #2B0254",
"Z  c #250853",
"A  c #2B0953",
"S  c #26025B",
"D  c #2C025B",
"F  c #260858",
"G  c #2C095A",
"H  c #330154",
"J  c #390255",
"K  c #340A52",
"L  c #33015C",
"P  c #39015C",
"I  c #320A5C",
"U  c #3B0F5A",
"Y  c #37115C",
"T  c #250364",
"R  c #2D0263",
"E  c #2D0A63",
"W  c #25006B",
"Q  c #2D036B",
"!  c #250A69",
"~  c #2C096B",
"^  c #340164",
"/  c #3A0264",
"(  c #340B64",
")  c #3B0B62",
"_  c #34026B",
"`  c #3B026C",
"'  c #32096B",
"]  c #3D096B",
"[  c #2E0371",
"{  c #2A0179",
"}  c #350372",
"|  c #3C0273",
" . c #350972",
".. c #3A0A73",
"X. c #36047A",
"o. c #3A047C",
"O. c #38057E",
"+. c #3E047C",
"@. c #3C057C",
"#. c #3D027A",
"$. c #3C097F",
"%. c #410066",
"&. c #400164",
"*. c #480066",
"=. c #430D61",
"-. c #42006B",
";. c #43026A",
":. c #41006A",
">. c #47006A",
",. c #43016D",
"<. c #43016F",
"1. c #40016C",
"2. c #44026C",
"3. c #42026C",
"4. c #48006E",
"5. c #42096A",
"6. c #410171",
"7. c #410173",
"8. c #430073",
"9. c #430072",
"0. c #430373",
"q. c #420271",
"w. c #450071",
"e. c #400573",
"r. c #400176",
"t. c #410076",
"y. c #430076",
"u. c #420376",
"i. c #450175",
"p. c #470075",
"a. c #440076",
"s. c #440377",
"d. c #400475",
"f. c #410577",
"g. c #430174",
"h. c #480075",
"j. c #490076",
"k. c #4A0274",
"l. c #430875",
"z. c #410078",
"x. c #41007A",
"c. c #42007B",
"v. c #43027A",
"b. c #400379",
"n. c #450079",
"m. c #470078",
"M. c #46007A",
"N. c #46027B",
"B. c #45017A",
"V. c #410778",
"C. c #42057A",
"Z. c #42027D",
"A. c #41007E",
"S. c #40027F",
"D. c #43017F",
"F. c #44007C",
"G. c #46027D",
"H. c #46017E",
"J. c #46047F",
"K. c #44027B",
"L. c #490078",
"P. c #4B007B",
"I. c #4A027A",
"U. c #49047B",
"Y. c #4F007F",
"T. c #4D017F",
"R. c #4A027D",
"E. c #440A7B",
"W. c #4D087F",
"Q. c #50017F",
"!. c #52097F",
"~. c #310085",
"^. c #390581",
"/. c #3C0281",
"(. c #3C018B",
"). c #380A8E",
"_. c #430081",
"`. c #450083",
"'. c #460084",
"]. c #410687",
"[. c #450283",
"{. c #4E0183",
"}. c #4F0286",
"|. c #4B0283",
" X c #4B0B85",
".X c #44038A",
"XX c #4D028A",
"oX c #46098C",
"OX c #4B098C",
"+X c #510080",
"@X c #510185",
"#X c #530C86",
"$X c #53028C",
"%X c #59038D",
"&X c #550E8A",
"*X c #52108E",
"=X c #450094",
"-X c #4C0194",
";X c #49079F",
":X c #540292",
">X c #5A0194",
",X c #540C92",
"<X c #55019A",
"1X c #5C029B",
"2X c #5D099C",
"3X c #600D83",
"4X c #610197",
"5X c #61039B",
"6X c #5100A0",
"7X c #5D02A2",
"8X c #6104A4",
"9X c #650AA3",
"0X c #6104AB",
"qX c #6407BA",
/* pixels */
"L C C D ^ ` | | ^ ^ ` ` ` ` ` ` ` ` ` ` ` 8.8.8.b.r.| ` ` ^ D D C D _ r.G.b.| | _ _ ` ` ` ` | f.G.b.r.| | ` 8.8./ R P ^ L ` + : ",
"^ C C I ^ ` ` ` ` ` ] | | | | | #.#.b.S._.[.[.[.G.b.r.| ` ^ ^ R C L ` i.M.M.| | r.r.8.8.8.i.M.M.S.+.#.| | | | | ^ ! L E E } $ : ",
"_ R D R _ | | | _ ` | | | | | | / / ` ` 1.8.8.8.G.b.| | ` ^ ^ L C D / 8.I.U.i.r.1.1.1.;.` ` 8.8.w.1.;./ / / / %.`  ./ ` ^ | # : ",
"_ R D ^ _ ` e.] | | | b.| | | | | | | b.S.S.S._.#.| ` _ ^ ^ L D C D ^ 8.M.M.M.b.+.+.#.#.#.O.O.^.b.b.| | | | | | ;.] *.2.;.h.- 4 ",
"P C C C L P / P | | | | | | | | | | | | | | #.#.` _ ^ ^ D D D C D ^ ` | b.b.#.| | ` ` ` | | #.#.} _ _ R R R ^ _ } { | X.X.].9 0 ",
"| R R _ _ } | _ _ _ ` _ ^ ^ ^ _ / / / / / / / / _ _ ^ ^ ^ ^ L D R ^ _ | f.V.V.V.M.h.h.I.I.Y.{.}.+XY.I.h.i.i.i.I.8.} ;.| | J.2 9 ",
".._ ' ..#.+.S.#.` ` ] / / / / ] #.+.#.#.f.......` ` ` ` ` ` ` ` D L ^ ] ] ] ] ] .X[..XXXXX-X:X<X1X>X>X:X:X:X>X>X<X;X:X-X-X6Xk V ",
"l i i l m H J H ^ ^ L L C C L L ` ` / / / / P P i.i.i.M.M.M.M.b.L L L D D C C C q i i i k l c m C c l l c b C H M C n m m P . + ",
"= < 4 8 q q 8 8 3 3 : @ O @ : : + O @ @ O O # , # # + X         3 9 w w 7 , : @ * + # # O # 7 s 8 4 # X O O X X X X o + # < 3 8 ",
"U.R. XOXOXOXXX X$X$X@X|.R.|.}.XX|.XXXXXX|.R.|.XXXX|.R.i.8.` ` ` |.@X:X:XXX|.R.i.] _ } _ H I ] #./.| C k b C D R C C D D D ^ _ | ",
">X>X1X7X7X1X1X1X>X%X%X@X+X@X$X$X}.XX$X$XQ.k.h.P.G.M.i.8.1.` ` ` i.R.@X@X@XY.h.w.;.1.b.| ` | [.=Xk.s.` ` #.| ` ;.R.R.R.R.R.|.|.|.",
"}.}.XXXXXX}.}.{.[.[.[.S.S.S.+.+.^ ^ _ _ ^ L D ^ R R R D D R R R Q } #.#.#.| | ` | | ..] L H / ^ _ ^ C C ^ _ ` | | | | ` ` _ ^ ^ ",
"[.[.[.[.[.[.[.[.|.}.}.|.|.|.[.S.c C ^ ^ ^ ^ ^ ` ` ` ` | | | | | #.+.S._.[.[.R.G.o.+.+.| ^ ^ ' ^ } ' R R } O.+.S.#.#.| } } _ Q R ",
"i.i.i.i.M.M.M.M.2.w.4.2.;.;.;./ p l C L ^ ^ ` | ` | | | | | | ` ` ` 8.1.w.w.2.2.1.1.2.1.` | b.| P / _ | `.[.M.k.U.G.M.M.r.8.` ` ",
"%.;.;.2.2.w.w.i.#.#.#.| | ..| } g V T [ } } X.+.#.o.o././.o.#.| | #.+.S.S.J.J.#.[.S.r.;./ 5.=.J L L m H &.2.8.i./ / / / ` / / P ",
"_ _ _ | | #.#.#.r.r.r.r.8.r.| ` k c D ^ / / %.;.1.1.8.r.w.w.;.;.| b.R.R.|.|.G.| $.} _ _ Q X. .T x C S R } } _ / _ ' ' _ } } ' _ ",
"` ` ;.;.8.] ] ) | | G.[.[.J.] ^ q C ^ ` ` ` r.I.R.b.| | | ..| b.| | | S.]..X.X(.1.;.` ` 5.5.) P _ R S S R _ r.G.S.M.M.s.f.| | i.",
".X[.|.R.[._.#.| _.G.R.k.k.k.f.| D ^ | | b.[. XXX%X$X}.{.{.}.@X}.{.{.{.@X@X@XY.R.v.r.| | | | _ ^ H H C I ^ ..|.$X1X>X>X>X:XXX}.@X",
"#...| | | | | _ C ( } } [ T F v d x C D C A A C _ _ R R R R R R c c c c c l i y d d d g g g g g A b k q q k b K P P H H I C c l ",
"X X   X + # # # 1 1 - - & + + + = 4 y t - + + & & & & o . . . . X O + + + + o . o o + # = = = 2 R S x d 7 3 4 8 3 : : : 3 : O   ",
"R R L ^ | V.E.E. X|.R.i.r.V.V.#.[.:X2X>X|.#.#.M.` ` ` ^ L D D C  ...$.oXOXOXOXXXi.M.R.[.[.[.|.|.+X@X#X&X#X|.G.[.| ' D R _ ^ x 3 ",
"$X+XY.Q.$X>X>X>XR.[..X.X=X.X[.V.|.XXXXXX|.|.|.|.:X:X:X:XXX|.G.J./ | G.XX:X<X<X<X{.{.}.}.XXXXXX$X:X:XXXXX|.[.[.|.$XW.f.G.XX{./ i ",
"D C x x S D R D R D C c c C ^ R ' } | | | ..V.#.b.r.r.| ` ^ L D x C ^ | [.[.|.|.| #.S.[.[.[.[.[.oX].} _ ^ ^ ( ) / C x D ` / i + ",
"P H c c C ^ ^ / ^ ' ] _ ^ ^ / / D ] 0.w.` ` r.M.[.[._.S.#.| ' R k C ^ | v.|.T.T.M.G.G.|.}.}.{.R.` ` ` ` | | | | | ^ F Q #.| k + ",
"S k i b R } X.} ^ ^ ^ ^ ^ ^ / / ` ` | | 1.1.;.%.M.G.M.| | | } } C ' V.[.G.G.|.[.s.b.M.[.|.|.G.r.) ] | ` / / 1.| | ^ H L ` ( q O ",
"l i l C ^ _ / J ` ` ` ` ` ` ` _ ' _ } | #.#.#.#.` ` ` / P P L H C ^ b.G.M.b.b.#.1.8.8.M.M.M.i.8.` | | _ ^ / ` ` } ^ D ^ } _ x # ",
"b x V S R R I m ^ ^ ^ ^ / ^ ^ ^ L ^ _ | | #.#.S.} } } _ ^ I G A C / U.Y.P.h.i.8._ _ _ } | | ` ^ _ _ _ R F F F T C l l H / P y & ",
"C k l l l c C C T T T T T T T T c C C D I L P P ^ ^ L L D C C C h W X.X.X.} X.[ ^ ^ ^ / ` / ^ L L L L L C C H L F S S T ~ G w O ",
"H H P / / / ` | C C C c c C C C } | | | | ` ` ` 1.1.8.8.8.8.8.r.P ] l.s.2.5.;.] | b.S.G.G.b.| | b.r.b.M.|.}.$X$XM.8.` | _ D q # ",
"3 0 S ~ W T F Z P P H H H H H H S S D C C c l l F C S E E ~ ' ' / 1.r.1./ P L L d k v x x z g d S Z x C R _ ` ` k.w.1.` / L k 8 ",
"o # 0 g 0 3 < % # # # # # # @ @ : : : : : : : % : : : 3 3 3 3 7 3 7 7 3 < = # # + + = = = = : : = +   X + # + o X       .       ",
"P ` | s./ H H L ^ ^ _ ` ` ` ` ] w.i.M.G.G.|.|.|.^ ^ P P P H H J ` | J.f.5.5.] ] b.b.b.b.S.`..X.X] C k k k g q 8 d 0 0 q k l x V ",
"1X1X>X>X:X:X:X:X:X:X%X%X$X$X$X$X` ` b.[.[.[.J.R.}.}.}.}.}.}.}.}.XXXXXXXXXX|.[.b.^ L L ^ ` ` _ / Z C D ^ e.l.l.| R.R.}.$X>X1X1X1X",
"S.b.| | e.| ..| ` ` _ _ _ _ _ _ l l C L L D C C k k k k k v v v c C H H H K K K ^ ^ ^ ^ ` ` _ ^ V C D ^ ` ` | ` R R ^ ^ ` | ` ` ",
"' ^ ^ ^ ^ ^ ^ ^ D D D D F D D D 8 8 k C C C H H D R R E E E ^ _ ^ _ _ | | ` ` ' | ` / ` ` ` ^ ^ S C D ^ _ _ ` ` D D D D D D D D ",
"` ` ^ ^ ^ / / ^ D D D C C D D D 7 0 d S R ^ ^ ^ ` ` ` 1.8.8.8.8...| b.b.b.#.| | | | ` | | | ` ^ D D ^ ^ ` | | ..b.r.| ` _ ^ ^ ^ ",
"^ ^ L L L L D C C C V x V C C D q d g S R R R ^ L L ^ ^ ^ ^ ^ ^ R ^ ^ _ _ _ ^ E } ` ` | ....` ^ D D D ^ ] | ....R.M.| ` ` ^ ^ ^ ",
"x x x x x x d d d d d d z v Z F i k c I L P P P R R _ _ _ ' _ } _ _ _ _ ` _ _ _ _ ^ ^ ` | | ] ^ D D D D ^ _ ` _ ` ^ D D C C C C ",
"V S S S V V x g g x x V V S S D i k c L ^ ^ ^ / P ^ ^ ^ / / / / / / ;.;.%./ P P R D L ^ _ _ ^ L D D D D D ^ ^ _ ^ L D Z Z V C D ",
"^ ` ` | ` ` ^ ^ ` | | | | | | | C D R _ } } } | ' ' _ _ _ _ _ _ W Q Q ~ _ E E S L L L L ^ ^ R D D D I D D R _ ` 1.` ^ L D ^ ^ ^ ",
"l x x x m H P ^ / / P L L H H H x c C C x x l l x c C D D D V x C C x k d q i k d d q 8 8 q d k Z V S D ^ ] ;.` v.#._ R P L /.c ",
". X X + + + # : ; ; @ @ @ @ @ O = = < % % + + + . o o o + o o X X X O + + # # # , : # # # : < 3 : 3 3 < # + + + & + X O + # s X ",
"D G ( ( ] / _ } ` | | ` 8.0.0.1._ _ _ _ Q R R D x V C C C C C V x S D _ | #.} } _ ^ L L L ^ ` ` [._.#.| _ R S V C V k q t t b * ",
"M.r.s.W.$X$X$X$XXX:X:X:X>X1X1X>X>X>X>X:X:X:X%X%XXX$X:X:X:X:XXXXX` i.{.>X1X1X:X$X1X>X:X%X%X:X1X2X8X5X>X>X%X&XW.r.!.|.b.+.i.r.=XL ",
"x q q l L / ^ P ^ / ` ` ` 8.8.8.2.2.;.;.;.;.;.;./ ` | | | ` ^ ^ k b L / / P H c C C c x x c C L / ] 5./ L H C H P L D ^ ) ^ O.i ",
"h 0 7 g E } ' ' | | | | r.v.b.r.} _ _ ^ ^ R R R D R ^ ^ ^ R S V g h F S C V x x v z f f f z v v S F E S S D S D S S F ^ U K E = ",
"V q 8 x ^ | ` ] _ ' _ Q _ ' ' _ | ` / ^ ^ ^ ^ ^ ^ / ] ` ` / ^ L x C C C C D D D D S S S S S R R D D D D ^ / ^ ^ H R ^ | s.| ~.s ",
"x q 8 l ^ _ ^ ^ ^ ^ L L L L L D ^ D D C C C D D R ^ _ _ R ^ R D l x k z Z S R R C C C C C D D L D L L D C C C D ^ _ ^ | ;./ } 4 ",
"A i 8 l ^ } ^ L H C C C D D D D D D D L D D D D R ^ ^ ^ ^ ^ ^ L x k d x v V h j x x V S S R R ^ c C D R S S S C C R x _ D Q ).1 ",
"Z q q x E Q R D V V V S D D D D D D C C C C C C D D L ^ ^ ^ L L q 8 4 i A D C c C C C D D L L L I D S V h g d 0 l c i D c V  .& ",
"x k k C ^ ^ L H C C D I P ^ P P _ _ _ ` ` ` _ _ ^ ` ` | | | | } S x l L #.`.r.&.P P / / ^ / / / P L H H M M M M D D C ( G V E - ",
"d d k v V S x x d d d x x x x x q d k l x x v v i l b c C C D C Z x x D Q _ ^ H ^ ' _ }  .} } _ .X[.J.| _ _ } +.#.#.` | _ ^ ^ i ",
"    . . o . . .       . . . o o   X O + + + + +   X + + = < : # < 7 d 0 3 < < 3 + + # # # # # # 8 4 < < < 8 k v Z b l l k q 6 3 ",
"L I ^ ^ L L L P D D D D D D D D l x C C C C C c c c C L P ^ ^ L H ` _.| P m m D L L L ^ ^ L D D B z 8 8 k Z S V g d d k x z u h ",
"M.G.[.[.[.R.|.|.XXXX@XXXXX|.|.XX[.XXXX:X<X:X:X$X1X7X7X7X8X8X8X2X1X8X0X0X5X5X8X7X1X1X5X1X1X1X>X:Xf.| | |  X*X,X$X:X%X1X>X0X9X3XqX",
"x C D D C C C D D D I D D D S S c C ^ / ` ] / / | | | | ` 1.;./ #.| _ _ r.|.XXXXXX$X$X$X$X}.|.R.L ^ / / / P P P L H / P r.8.M (.",
"` ` ` ` ` ` ` ` ` ` / / / / ` | b S T S D _ _ D _ _ _ ` ` _ _ ` D R ^ ` | r.b.M.G.J...| | | | } e i ' l x l V k V x x g x x x x ",
"^ ^ ^ ^ _ _ ^ R _ _ ^ ^ ^ _ } } n l C H L / ^ H D L L L ^ ^ ^ ^ ` ` | i.R.|.R.R.G.M.| 8.w.i.V.#.1 q ~ k C b E A D D D L L P P ^ ",
"' _ ^ ^ ^ ^ ^ ^ ^ ^ ^ ^ ^ _ } } H l l I _ _ ^ D D D D D R R R R L ^ / ` 1.1.1.` / ^ ^ L L P L D 1 q T d V x S x c c C C C D D L ",
"/ / ^ ^ L L D C ^ ^ ^ / / ` | r.D 8 8 S W R F h D D D D D D D D T R Q _ } } } Q R Q T T R R T j 1 q T d S C T C L P / / ` ` ` ` ",
"i.i.8.| ` _ ^ ^ ` | | 8.r.M.R.|.c 4 1 g S C v g l l c c c c c c S S D D R R R D D D D D L I G V r k R i V c D V x x C D R R R R ",
"J.[.J.V.#.| | | | #.#.b.S.G.|.|.J c c R ^ P P D D D R R R R ^ R L L L P / P / P P P P P P J H c r k ^ i c l D c D ^ ] ` | ` _ _ ",
"x x C x x x x x x b b c c c c c l V T S c c C C S S E E R R R E R R ^ _ _ ^ ^ E L ^ R R D D V g 4 d ~ k C N ( Y @X%X1X4X4X>X%X$X",
"+ + + = + + + + + + + + o o o o . > a 5 o . # # < < < < < < < < + + # # # # + X . X X X X o     8 k ~ q d q g d d z Z C x k q q "
};
