/* XPM */
static char *result[] = {
/* columns rows colors chars-per-pixel */
"64 64 209 2 ",
"   c #5B2D3A",
".  c #77302E",
"X  c #612D39",
"o  c #722D32",
"O  c #762E30",
"+  c #752C33",
"@  c #074214",
"#  c #094512",
"$  c #084114",
"%  c #094414",
"&  c #0A4414",
"*  c #0A4515",
"=  c #0F4A14",
"-  c #14491D",
";  c #376E10",
":  c #376E11",
">  c #397110",
",  c #6A4034",
"<  c #1E264A",
"1  c #2D2743",
"2  c #2A2647",
"3  c #2C2546",
"4  c #2D2647",
"5  c #2E2746",
"6  c #2F2943",
"7  c #232649",
"8  c #22274F",
"9  c #26244C",
"0  c #27254C",
"q  c #2D2749",
"w  c #2D274B",
"e  c #2F274C",
"r  c #2F2849",
"t  c #2E2949",
"y  c #2E284A",
"u  c #2F284A",
"i  c #28284E",
"p  c #312843",
"a  c #332A47",
"s  c #362C47",
"d  c #302648",
"f  c #312749",
"g  c #31274A",
"h  c #31274C",
"j  c #322948",
"k  c #30294A",
"l  c #30294B",
"z  c #32284B",
"x  c #202052",
"c  c #212153",
"v  c #46415D",
"b  c #546457",
"n  c #574D65",
"m  c #625E75",
"M  c #625E77",
"N  c #5E6961",
"B  c #5E6B62",
"V  c #B92710",
"C  c #B22811",
"Z  c #B62F11",
"A  c #B53213",
"S  c #B73515",
"D  c #BE3312",
"F  c #BF3413",
"G  c #BF3713",
"H  c #BD3015",
"J  c #BD3116",
"K  c #BC3017",
"L  c #BC3216",
"P  c #BF3415",
"I  c #BE3916",
"U  c #B33C1E",
"Y  c #C9300E",
"T  c #CB360E",
"R  c #C23311",
"E  c #C33311",
"W  c #C23313",
"Q  c #C73110",
"!  c #C13512",
"~  c #C03612",
"^  c #C43412",
"/  c #C63413",
"(  c #C03315",
")  c #C03317",
"_  c #C53214",
"`  c #C03514",
"'  c #C13514",
"]  c #C13615",
"[  c #C03516",
"{  c #C13617",
"}  c #C23813",
"|  c #B05C16",
" . c #894E24",
".. c #8D4C26",
"X. c #8D4D27",
"o. c #91503E",
"O. c #CB460F",
"+. c #D24C0C",
"@. c #D45409",
"#. c #D3530C",
"$. c #D2510F",
"%. c #D0540C",
"&. c #CC4710",
"*. c #D66B03",
"=. c #DD6F00",
"-. c #DD6E03",
";. c #DE6E02",
":. c #DE7205",
">. c #E76B00",
",. c #E46A03",
"<. c #E56D00",
"1. c #E66E00",
"2. c #E76F01",
"3. c #E56F03",
"4. c #E56B04",
"5. c #E06F05",
"6. c #E86C00",
"7. c #E86E01",
"8. c #E37202",
"9. c #E47301",
"0. c #E77200",
"q. c #E67300",
"w. c #E77201",
"e. c #E57102",
"r. c #E67002",
"t. c #E47303",
"y. c #E77302",
"u. c #E67203",
"i. c #E77401",
"p. c #E07004",
"a. c #E17105",
"s. c #E77105",
"d. c #E47205",
"f. c #E27405",
"g. c #E97100",
"h. c #E87300",
"j. c #E87301",
"k. c #EA7300",
"l. c #EA7201",
"z. c #E87302",
"x. c #E97400",
"c. c #EA7501",
"v. c #E97402",
"b. c #E87502",
"n. c #E87403",
"m. c #E97403",
"M. c #EC7501",
"N. c #E87705",
"B. c #EC7800",
"V. c #EC7801",
"C. c #F57800",
"Z. c #F57A00",
"A. c #F97800",
"S. c #E07E1D",
"D. c #DF7D22",
"F. c #CF604D",
"G. c #EF8C17",
"H. c #EF8A18",
"J. c #ED8C19",
"K. c #F08A1B",
"L. c #E18329",
"P. c #E89225",
"I. c #EE9925",
"U. c #F29724",
"Y. c #F49B27",
"T. c #F49E27",
"R. c #F39728",
"E. c #F59E2B",
"W. c #EE973E",
"Q. c #F8A837",
"!. c #83B355",
"~. c #ED9742",
"^. c #EC9643",
"/. c #EE9642",
"(. c #EC9544",
"). c #EF9942",
"_. c #FA9B41",
"`. c #EEB448",
"'. c #EFB748",
"]. c #EABA4E",
"[. c #F4B647",
"{. c #F6BA4A",
"}. c #FABB4A",
"|. c #F9BD4B",
" X c #FABF4A",
".X c #FDBE4A",
"XX c #F6B45D",
"oX c #FDC04B",
"OX c #FFC24B",
"+X c #FCC04C",
"@X c #FDC04C",
"#X c #FFC04C",
"$X c #FEC14D",
"%X c #FDC24C",
"&X c #FFC24D",
"*X c #FEC34D",
"=X c #FFC24E",
"-X c #FFC34E",
";X c #FFC44E",
":X c #FECD4D",
">X c #FFC350",
",X c #FEC753",
"<X c #FFC851",
"1X c #FDC952",
"2X c #FFC852",
"3X c #FFC953",
"4X c #FECA53",
"5X c #FFC955",
"6X c None",
/* pixels */
"6X6X6X6X6X6X6X6X6X6X6X6X6X6X6X6X6X6X6X6X6X6X6X6X6X6X6X6X6X6X6X6X6X6X6X6X6X6X6X6X6X6X6X6X6X6X6X6X6X6X6X6X6X6X6X6X6X6X6X6X6X6X6X6X",
"6X6X6X6X6X6X6X6X6X6X6X6X6X6X6X6X6X6X6X6X6X6X6X6X6X6X6X6X6X6X6X6X6X6X6X6X6X6X6X6X6X6X6X6X6X6X6X6X6X6X6X6X6X6X6X6X6X6X6X6X6X6X6X6X",
"6X6X6X6X6X6X6X6X6X6X6X6X6X6X6X6X6X6X6X6X6X6X6X6X6X6X6X6X6X6X6X6X6X6X6X6X6X6X6X6X6X6X6X6X6X6X6X6X6X6X6X6X6X6X6X6X6X6X6X6X6X6X6X6X",
"6X6X6X6X6X6X6X6X6X6X6X6X6X6X6X6X6X6X6X6X6X6X6X6X6X6X6X6X6X6X6X6X6X6X6X6X6X6X6X6X6X6X6X6X6X6X6X6X6X6X6X6X6X6X6X6X6X6X6X6X6X6X6X6X",
"6X6X6X6X6X6X6X6X6X6X6X6X6X6X6X6X6X6X6X6X6X6X6X6X6X6X6X6X6X6X6X6X6X6X6X6X6X6X6X6X6X6X6X6X6X6X6X6X6X6X6X6X6X6X6X6X6X6X6X6X6X6X6X6X",
"6X6X6X6X6X6X6X6X6X6X6X6X6X6X6X6X6X6X6X6X6X6X6X6X6X6X6X6X6X6X6X6X6X6X6X6X6X6X6X6X6X6X6X6X6X6X6X6X6X6X6X6X6X6X6X6X6X6X6X6X6X6X6X6X",
"6X6X6X6X6X6X6X6X6X6X6X6X6X6X6X6X6X6X6X6X6X6X6X6X6X6X6X6X6X6X6X6X6X6X6X6X6X6X6X6X6X6X6X6X6X6X6X6X6X6X6X6X6X6X6X6X6X6X6X6X6X6X6X6X",
"6X6X6X6X6X6X6X6X6X6X6X6X6X6X6X6X6X6X6X6X6X6X6X6X6X6X6X6X6X6X6X6X6X6X6X6X6X6X6X6X6X6X6X6X6X6X6X6X6X6X6X6X6X6X6X6X6X6X6X6X6X6X6X6X",
"6X6X6X6X6X6X6X6X6X6X6X6X6X6X6X6X6X6X6X6X6X6X6X6X6X6X6X6X6X6X6X6X6X6X6X6X6X6X6X6X6X6X6X6X6X6X6X6X6X6X6X6X6X6X6X6X6X6X6X6X6X6X6X6X",
"6X6X6X6X6X6X6X6X6X6X6X6X6X6X6X6X6X6X6X6X6X6X6X6X6X6X6X6X6X6X6X6X6X6X6X6X6X6X6X6X6X6X6X6X6X6X6X6X6X6X6X6X6X6X6X6X6X6X6X6X6X6X6X6X",
"6X6X6X6X6X6X6X6X6X6X6X6X6X6X6X6X6X6X6X6X6X6X6X6X6X6X6X6X6X6X6X6X6X6X6X6X6X6X6X6X6X6X6X6X6X6X6X6X6X6X6X6X6X6X6X6X6X6X6X6X6X6X6X6X",
"6X6X6X6X6X6X6X6X6X6X6X6X6X6X6X6X6X6X6X6X6X6X6X6X6X6X6X6X6X6X6X% % ; ; ; 6X6X6X6X6X6X6X6X6X6X6X6X6X6X6X6X6X6X6X6X6X6X6X6X6X6X6X6X",
"6X6X6X6X6X6X6X6X6X6X6X6X6X6X6X6X6X6X6X6X6X6X6X6X6X6X6X6X6X6X6X% & : ; ; 6X6X6X6X6X6X6X6X6X6X6X6X6X6X6X6X6X6X6X6X6X6X6X6X6X6X6X6X",
"6X6X6X6X6X6X6X6X6X6X6X6X6X6X6X6X6X6X6X6X6X6X6X6X6X6X6X6X6X6X6X% !.!.; ; N 6X6X6X6X6X6X6X6X6X6X6X6X6X6X6X6X6X6X6X6X6X6X6X6X6X6X6X",
"6X6X6X6X6X6X6X6X6X6X6X6X6X6X6X6X6X6X6X6X6X6X6X6X6X6X6X6X6X6X6X% !.!.; % 6X6X6X6X6X6X6X6X6X6X6X6X6X6X6X6X6X6X6X6X6X6X6X6X6X6X6X6X",
"6X6X6X6X6X6X6X6X6X6X6X6X6X6X6X6X6X6X6X6X6X6X6X6X6X6X6X6X6X6X6X% !.!.; % 6X6X6X6X6X6X6X6X6X6X6X6X6X6X6X6X6X6X6X6X6X6X6X6X6X6X6X6X",
"6X6X6X6X6X6X6X6X6X6X6X6X6X6X6X6X6X6X6X6X6X6X6X6X6X6X6X6X6X6X6X# !.; ; % 6X6X6X6X6X6X6X6X6X6X6X6X6X6X6X6X6X6X6X6X6X6X6X6X6X6X6X6X",
"6X6X6X6X6X6X6X6X6X6X6X6X6X6X6X6X6X6X6X6X6X6X6X6X6X6X6XB - 6X% !.; = b 6X6X6X6X6X6X6X6X6X6X6X6X6X6X6X6X6X6X6X6X6X6X6X6X6X6X6X6X6X",
"6X6X6X6X6X6X6X6X6X6X6X6X6X6X6X6X6X6X6X6X6X6X6X6X6X6X6X6X% N % !.; & 6X6X6X6X6X6X6X6X6X6X6X6X6X6X6X6X6X6X6X6X6X6X6X6X6X6X6X6X6X6X",
"6X6X6X6X6X6X6X6X6X6X6X6X6X6X6X6X6X6X6X6X6X6X6X6X6X6X6X6X; * % ; ; ; % % 6X6X6X6X6X6X6X6X6X6X6X6X6X6X6X6X6X6X6X6X6X6X6X6X6X6X6X6X",
"6X6X6X6X6X6X6X6X6X6X6X6X6X6X6X6X6X6X6X6X6X6X6X6Xo.E E E _ % > $ ; @ % / R E 6X6X6X6X6X6X6X6X6X6X6X6X6X6X6X6X6X6X6X6X6X6X6X6X6X6X",
"6X6X6X6X6X6X6X6X6X6X6X6X6X6X6X6X6X6X6X6X6XW ` ` F P j.j.j.0.` [ ` ` v.j.v.{ ` ` ` Y 6X6X6X6X6X6X6X6X6X6X6X6X6X6X6X6X6X6X6X6X6X6X",
"6X6X6X6X6X6X6X6X6X6X6X6X6X6X6X6X6X6X6X6Xy.z.w.w.#.P n.#X#X#Xw.` w.$X#X#Xj.0.w.w.w.w.i.[ 6X6X6X6X6X6X6X6X6X6X6X6X6X6X6X6X6X6X6X6X",
"6X6X6X6X6X6X6X6X6X6X6X6X6X6X6X6X6X6X6XL j.j.6.1.+.K 7.&X&X&X1.H 1.&X&X&X1.i.2.1.<.j.m.J 6X6X6X6X6X6X6X6X6X6X6X6X6X6X6X6X6X6X6X6X",
"6X6X6X6X6X6X6X6X6X6X6X6X6X6X6X6X6X6X` j.j.j.4X&XY.0.&X&X&X&X&Xj.&X&X&X&X&Xn.-X&X.Xj.j.j.` 6X6X6X6X6X6X6X6X6X6X6X6X6X6X6X6X6X6X6X",
"6X6X6X6X6X6X6X6X6X6X6X6X6X6X6X6X6XO.&X&Xj.-X&X&XQ.H.&X&X&X&X&XK.&X&X&X&X&XG.;X&X&X3X0.&X*X&.6X6X6X6X6X6X6X6X6X6X6X6X6X6X6X6X6X6X",
"6X6X6X6X6X6X6X6X6X6X6X6X6X6X6X6X` j.&X&Xj.-X&X&X&X&X&X&X&X&X&X&X&X&X&X&X&X&X&X&X&X3X0.&X&Xj.` 6X6X6X6X6X6X6X6X6X6X6X6X6X6X6X6X6X",
"6X6X6X6X6X6X6X6X6X6X6X6X6X6X6X6Xj.&X&Xi.&X>X&X&X&X&X&X&X&X&X&X&X&X&X&X&X&X&X&X&X&X&X-Xj.&X&X0.6X6X6X6X6X6X6X6X6X6X6X6X6X6X6X6X6X",
"6X6X6X6X6X6X6X6X6X6X6X6X6X6X6XQ 2X&X&Xj.&X&X&Xs.U.&X&X&X&X&X&X<.&X&X&X&X&X&X>.R.&X&X-Xj.&X&X3XQ 6X6X6X6X6X6X6X6X6X6X6X6X6X6X6X6X",
"6X6X6X6X6X6X6X6X6X6X6X6X6X6X6X` &X&X&X*X@X@XV 6 ..q.&X&X&X&X&Xj.&X&X&X&X&X~.w . I &X&X&Xi.&X&X` 6X6X6X6X6X6X6X6X6X6X6X6X6X6X6X6X",
"6X6X6X6X6X6X6X6X6X6X6X6X6X6X6X0.&X&X&X$X&XA 7 4 g q &X&X&X&X&Xj.&X&X&X&X&X4 4 u 4 F.{.|.j.&X&Xw.6X6X6X6X6X6X6X6X6X6X6X6X6X6X6X6X",
"6X6X6X6X6X6X6X6X6X6X6X6X6X6X6Xj.&X&X&X&X'.Z < 4 r 4 &X$X$X@X&X-.+X&X&X&X&X4 4 y 4 C =XOXk.&X&Xj.6X6X6X6X6X6X6X6X6X6X6X6X6X6X6X6X",
"6X6X6X6X6X6X6X6X6X6X6X6X6X6Xz.&X&X#Xj.f.M 1 n n n n p D.`.&X&X(.}.&X&X^.u j n n n 4 2 p.oX&X&Xj.w.6X6X6X6X6X6X6X6X6X6X6X6X6X6X6X",
"6X6X6X6X6X6X6X6X6X6X6X6X6X6X` *X&Xj.j.u M =.].).=.W.M v /.&XS.m L.&X/.3 n 8.;.XX[._.M M y.&X&Xj.` 6X6X6X6X6X6X6X6X6X6X6X6X6X6X6X",
"6X6X6X6X6X6X6X6X6X6X6X6X6X6X[ j.&Xj.&X&X&X&X X:.I.&X&X&X&X&X9.5 *.@X&X@X&X&Xq.P.$X X&X&X*Xj.g.j.` 6X6X6X6X6X6X6X6X6X6X6X6X6X6X6X",
"6X6X6X6X6X6X6X6X6X6X6X6X6X6X` j.2Xj.2X2X:X1X2XN.T.<X&X&X&X&XC.e C.&X&X&X&X&X0.E.2X,X&X2X5Xj.j.j.` 6X6X6X6X6X6X6X6X6X6X6X6X6X6X6X",
"6X6X6X6X6X6X6X6X6X6X6X6X6X6X` j.j.j.j.j.u ! V.j.j.&X&X&X&Xj.u %Xu j.&X&X&X&X&Xj.3.T w j.j.j.j.j.` 6X6X6X6X6X6X6X6X6X6X6X6X6X6X6X",
"6X6X6X6X6X6X6X6X6X6X6X6X6X6X` j.j.j.j.j.u   Z.j.j.M., j.j.j.| J.| j.j.j.j.j.j.j.a.X w j.j.j.j.j.` 6X6X6X6X6X6X6X6X6X6X6X6X6X6X6X",
"6X6X6X6X6X6X6X6X6X6X6X6X6X6X` j.j.j.j.j.u u A.j.j.x.a j.j.j.j.j.j.j.j.j.j.j.j.j.p.u w j.j.j.j.j.` 6X6X6X6X6X6X6X6X6X6X6X6X6X6X6X",
"6X6X6X6X6X6X6X6X6X6X6X6X6X6X' j.j.` j.j.` w u 5.X.u u g j.i.j.l j.j.j.j.g e.j.X.u 8 P j.j.j.F j.` 6X6X6X6X6X6X6X6X6X6X6X6X6X6X6X",
"6X6X6X6X6X6X6X6X6X6X6X6X6X6X6X` j.` j.j.j.u u S + u k u e z.u u u j.u u z h b. .g c j.j.j.` ` ` 6X6X6X6X6X6X6X6X6X6X6X6X6X6X6X6X",
"6X6X6X6X6X6X6X6X6X6X6X6X6X6X6X` j.` j.j.j.j.x u u w 8.u u ` u u u ` u u j.a u u s j.j.j.j.` ` ` 6X6X6X6X6X6X6X6X6X6X6X6X6X6X6X6X",
"6X6X6X6X6X6X6X6X6X6X6X6X6X6X6X6X] w.] j.j.j.t.G O w j.d.u d u u u f u u.l.a P %.r.j.j.j.j.` ` 6X6X6X6X6X6X6X6X6X6X6X6X6X6X6X6X6X",
"6X6X6X6X6X6X6X6X6X6X6X6X6X6X6X6X^ c.` j.j.j.j.[ o i j.i.0 9 u u u 0 0 j.j.t ) #.j.j.j.j.c.` ^ 6X6X6X6X6X6X6X6X6X6X6X6X6X6X6X6X6X",
"6X6X6X6X6X6X6X6X6X6X6X6X6X6X6X6X6X6X` [ j.j.j.j.0.h.j.j.j.j.j.j.j.j.j.j.j.l.j.@.} j.h.` ~ 6X6X6X6X6X6X6X6X6X6X6X6X6X6X6X6X6X6X6X",
"6X6X6X6X6X6X6X6X6X6X6X6X6X6X6X6X6X6XU ` ,.,.m.j.j.j.j.j.j.j.j.,.j.j.j.j.j.j.,.$.] ,.4.` U 6X6X6X6X6X6X6X6X6X6X6X6X6X6X6X6X6X6X6X",
"6X6X6X6X6X6X6X6X6X6X6X6X6X6X6X6X6X6X6X` ` ` B.j.j.j.j.j.j.j.j.` j.j.j.j.j.j.P ` ` ` ` ` 6X6X6X6X6X6X6X6X6X6X6X6X6X6X6X6X6X6X6X6X",
"6X6X6X6X6X6X6X6X6X6X6X6X6X6X6X6X6X6X6X6X6X( ] ` ` D j.j.j.j.j.` j.j.j.j.j.] ` ` ` Y 6X6X6X6X6X6X6X6X6X6X6X6X6X6X6X6X6X6X6X6X6X6X",
"6X6X6X6X6X6X6X6X6X6X6X6X6X6X6X6X6X6X6X6X6X6X6X6X6X6X` ` ` ` ` ` ` ` ` ` ` 6X6X6X6X6X6X6X6X6X6X6X6X6X6X6X6X6X6X6X6X6X6X6X6X6X6X6X",
"6X6X6X6X6X6X6X6X6X6X6X6X6X6X6X6X6X6X6X6X6X6X6X6X6X6X6X6X6X6X6X6X6X6X6X6X6X6X6X6X6X6X6X6X6X6X6X6X6X6X6X6X6X6X6X6X6X6X6X6X6X6X6X6X",
"6X6X6X6X6X6X6X6X6X6X6X6X6X6X6X6X6X6X6X6X6X6X6X6X6X6X6X6X6X6X6X6X6X6X6X6X6X6X6X6X6X6X6X6X6X6X6X6X6X6X6X6X6X6X6X6X6X6X6X6X6X6X6X6X",
"6X6X6X6X6X6X6X6X6X6X6X6X6X6X6X6X6X6X6X6X6X6X6X6X6X6X6X6X6X6X6X6X6X6X6X6X6X6X6X6X6X6X6X6X6X6X6X6X6X6X6X6X6X6X6X6X6X6X6X6X6X6X6X6X",
"6X6X6X6X6X6X6X6X6X6X6X6X6X6X6X6X6X6X6X6X6X6X6X6X6X6X6X6X6X6X6X6X6X6X6X6X6X6X6X6X6X6X6X6X6X6X6X6X6X6X6X6X6X6X6X6X6X6X6X6X6X6X6X6X",
"6X6X6X6X6X6X6X6X6X6X6X6X6X6X6X6X6X6X6X6X6X6X6X6X6X6X6X6X6X6X6X6X6X6X6X6X6X6X6X6X6X6X6X6X6X6X6X6X6X6X6X6X6X6X6X6X6X6X6X6X6X6X6X6X",
"6X6X6X6X6X6X6X6X6X6X6X6X6X6X6X6X6X6X6X6X6X6X6X6X6X6X6X6X6X6X6X6X6X6X6X6X6X6X6X6X6X6X6X6X6X6X6X6X6X6X6X6X6X6X6X6X6X6X6X6X6X6X6X6X",
"6X6X6X6X6X6X6X6X6X6X6X6X6X6X6X6X6X6X6X6X6X6X6X6X6X6X6X6X6X6X6X6X6X6X6X6X6X6X6X6X6X6X6X6X6X6X6X6X6X6X6X6X6X6X6X6X6X6X6X6X6X6X6X6X",
"6X6X6X6X6X6X6X6X6X6X6X6X6X6X6X6X6X6X6X6X6X6X6X6X6X6X6X6X6X6X6X6X6X6X6X6X6X6X6X6X6X6X6X6X6X6X6X6X6X6X6X6X6X6X6X6X6X6X6X6X6X6X6X6X",
"6X6X6X6X6X6X6X6X6X6X6X6X6X6X6X6X6X6X6X6X6X6X6X6X6X6X6X6X6X6X6X6X6X6X6X6X6X6X6X6X6X6X6X6X6X6X6X6X6X6X6X6X6X6X6X6X6X6X6X6X6X6X6X6X",
"6X6X6X6X6X6X6X6X6X6X6X6X6X6X6X6X6X6X6X6X6X6X6X6X6X6X6X6X6X6X6X6X6X6X6X6X6X6X6X6X6X6X6X6X6X6X6X6X6X6X6X6X6X6X6X6X6X6X6X6X6X6X6X6X",
"6X6X6X6X6X6X6X6X6X6X6X6X6X6X6X6X6X6X6X6X6X6X6X6X6X6X6X6X6X6X6X6X6X6X6X6X6X6X6X6X6X6X6X6X6X6X6X6X6X6X6X6X6X6X6X6X6X6X6X6X6X6X6X6X",
"6X6X6X6X6X6X6X6X6X6X6X6X6X6X6X6X6X6X6X6X6X6X6X6X6X6X6X6X6X6X6X6X6X6X6X6X6X6X6X6X6X6X6X6X6X6X6X6X6X6X6X6X6X6X6X6X6X6X6X6X6X6X6X6X",
"6X6X6X6X6X6X6X6X6X6X6X6X6X6X6X6X6X6X6X6X6X6X6X6X6X6X6X6X6X6X6X6X6X6X6X6X6X6X6X6X6X6X6X6X6X6X6X6X6X6X6X6X6X6X6X6X6X6X6X6X6X6X6X6X",
"6X6X6X6X6X6X6X6X6X6X6X6X6X6X6X6X6X6X6X6X6X6X6X6X6X6X6X6X6X6X6X6X6X6X6X6X6X6X6X6X6X6X6X6X6X6X6X6X6X6X6X6X6X6X6X6X6X6X6X6X6X6X6X6X",
"6X6X6X6X6X6X6X6X6X6X6X6X6X6X6X6X6X6X6X6X6X6X6X6X6X6X6X6X6X6X6X6X6X6X6X6X6X6X6X6X6X6X6X6X6X6X6X6X6X6X6X6X6X6X6X6X6X6X6X6X6X6X6X6X"
};